<svg xmlns="http://www.w3.org/2000/svg" width="239.228" height="191.745" viewBox="0 0 239.228 191.745">
  <g id="グループ_1_1_" transform="translate(0.1 0.4)">
    <path id="パス_1_1_" d="M17.6,41.2c.2,0,.3.1.5.2a.67.67,0,0,1,.3.8c-.1.2.1.5,0,.8,0,.3-.1.5-.1.8a27.586,27.586,0,0,1-.8,2.7c-.1.2-.1.3-.2.5-.1.1-.1.3-.2.4a3.506,3.506,0,0,0-.6,1.4c0,.1,0,.1-.1.1a4.418,4.418,0,0,0-.6,1.6,6.117,6.117,0,0,1-.5,1.2,6.109,6.109,0,0,0-.7,1.4,5.019,5.019,0,0,0-.2,1.2,3.553,3.553,0,0,1-.2,1c-.1.2-.2.5-.3.7a1.234,1.234,0,0,1-.4.8l-.1.1a5.023,5.023,0,0,1-.5,1.3.9.9,0,0,0-.1.5,1.268,1.268,0,0,0-.1.6,4.193,4.193,0,0,1-.5,2.2,2.544,2.544,0,0,0-.2.7,1.268,1.268,0,0,1-.1.6.31.31,0,0,0-.1.2,6.6,6.6,0,0,0-.1,1.4c.1.4.1.7.2,1.2a4.084,4.084,0,0,1-.1,1.9,1.95,1.95,0,0,0,0,1.5,3.553,3.553,0,0,1,.2,1v1.9a2.959,2.959,0,0,1-.2,1,.6.6,0,0,0-.1.4,1.073,1.073,0,0,0,.1,1.1.1.1,0,0,0,.1.1,5.7,5.7,0,0,0,.1,1.3v1.4a.749.749,0,0,0,.1.5c.1.1.1.4.1.5a3.4,3.4,0,0,0,.1,1c0,.1.1.2,0,.2-.3.4-.3.6-.1.8a5.9,5.9,0,0,0,.4.8l.6,1.5c0,.1.1.3.1.4s-.1.2-.1.4a10.869,10.869,0,0,1,.1,1.8.367.367,0,0,0,.1.3,1.183,1.183,0,0,0,.1,1c.1.5.2.9.3,1.4a5.783,5.783,0,0,0,.5,1.4,1.421,1.421,0,0,1,.2.6,4.532,4.532,0,0,0,1.1,1.9,4.62,4.62,0,0,1,.7.7,1.794,1.794,0,0,0,.7.5.664.664,0,0,1,.4.5c.1.2.1.4.2.6l.4.9c.3.2.5.5.8.7l1.5,1.1a1.962,1.962,0,0,1,.9.9l.5.7.1.1a3.591,3.591,0,0,0,1,.7c.3.2.5.6.8.8a3.379,3.379,0,0,0,1.2.6c.3.1.5.2.8.3a.1.1,0,0,1,.1.1h0a4.351,4.351,0,0,1,1.9,1c.1.1.3.1.5.2a1.234,1.234,0,0,1,.8.4c.3.2.5.4.8.6a2.092,2.092,0,0,1,.6.4c.1.1.3.1.4.2a5.637,5.637,0,0,1,1.2.4,3.255,3.255,0,0,0,1.4.4,1.949,1.949,0,0,1,.8.1c.1.1.2,0,.4,0,.7.1,1.4.1,2.1.2h.2a7.772,7.772,0,0,1,1.6-.2h.1a8.331,8.331,0,0,1,1.5-.4c.1-.1.3-.1.4-.2a8.488,8.488,0,0,1,2.2-.9,2.01,2.01,0,0,0,.8-.4,2.507,2.507,0,0,1,.7-.4c.3-.2.6-.2.9-.4a5.9,5.9,0,0,1,.8-.4c.1-.1.3-.1.4-.2l.9-.9a2.577,2.577,0,0,0,.8-1.3c.1-.2.2-.3.3-.5a2.092,2.092,0,0,0,.4-.6c.3-.7.7-1.4,1-2.1a10.926,10.926,0,0,0,.5-1.7,3.287,3.287,0,0,1,.7-1.6,3.374,3.374,0,0,0,.4-1.2,2.768,2.768,0,0,1,.3-1.3,5.638,5.638,0,0,0,.4-1.2c-.1-.3-.2-.7-.3-1a2.622,2.622,0,0,1-.2-1.5V84.8a1.421,1.421,0,0,0-.2-.6,3.287,3.287,0,0,1-.7-1.6,5.845,5.845,0,0,1,.2-1.9,1.093,1.093,0,0,0-.2-1,2.863,2.863,0,0,1-.6-2.2,1.729,1.729,0,0,0,.1-1,2.934,2.934,0,0,0-.4-1.6c-.1-.2-.2-.5-.3-.7-.1-.4-.2-.7-.3-1-.1-.4-.3-.7-.4-1.1a3.293,3.293,0,0,0-.7-1.3c-.1-.1-.2-.3-.4-.4a16.18,16.18,0,0,0-1-1.8,3.508,3.508,0,0,1-.5-.8,9.062,9.062,0,0,1-1.1-1.6,1.884,1.884,0,0,1-.2-.8,2.768,2.768,0,0,0-.3-1.3.367.367,0,0,1-.1-.3,8.342,8.342,0,0,0-.8-1.2l-.1-.1a5.838,5.838,0,0,1-.8-2.2,3.553,3.553,0,0,0-.2-1,.664.664,0,0,0-.4-.5,5.48,5.48,0,0,1-1.8-1.6,7.006,7.006,0,0,1-.8-1,2.651,2.651,0,0,0-.6-.5c-.1,0-.2-.1-.3-.2a1.441,1.441,0,0,1-.8-1.3v-.3a2.7,2.7,0,0,1,1-1.7,3.552,3.552,0,0,1,.9-.4.548.548,0,0,1,.6.4,3,3,0,0,1,.4,1c.1.2.1.4.2.6a.349.349,0,0,0,.1.2c.1.2.3.2.5.1a.1.1,0,0,0,.1-.1,12.132,12.132,0,0,0,1-1.4,1.945,1.945,0,0,1,1.4-.9,3,3,0,0,0,1-.4,5.241,5.241,0,0,0,1.1-1,1.05,1.05,0,0,1,.9-.5c.2-.1.5-.1.7-.2a3.8,3.8,0,0,0,1.8-1.3,2.836,2.836,0,0,1,1-.9,1.135,1.135,0,0,1,.8-.3,3.456,3.456,0,0,0,2.1-1c.1-.1.3-.2.4-.4a1.794,1.794,0,0,0,.7-.5l.7-.7a3.592,3.592,0,0,1,1-.7,1.087,1.087,0,0,1,.5-.1.908.908,0,0,0,1,0c.6.1,1-.4,1.4-.7l1.2-.9a1.991,1.991,0,0,0,.8-1.2.52.52,0,0,1,.2-.4,4.248,4.248,0,0,0,1-1.7,2.994,2.994,0,0,1,.4-.8.52.52,0,0,0,.2-.4,8.469,8.469,0,0,0,.4-1.7.764.764,0,0,1,.2-.5,6.071,6.071,0,0,1,.7-1c.1-.1.1-.2.2-.3.1-.2.1-.4.2-.6a.55.55,0,0,1,.3-.5,14.31,14.31,0,0,0,1.6-2.4,6.726,6.726,0,0,1,.7-1.1l.2-.2c.1-.1.3-.2.4-.3a7.551,7.551,0,0,0,1.1-1.4,2.66,2.66,0,0,1,1.1-1c.3-.1.6-.3.9-.4a2.7,2.7,0,0,0,1.7-1,11.319,11.319,0,0,1,1.3-1,4.333,4.333,0,0,0,1.9-.4.1.1,0,0,0,.1-.1c.4-.1.9-.1,1.3-.2h.4a3.922,3.922,0,0,0,1.8-.4,2.636,2.636,0,0,1,2.7.3,3.508,3.508,0,0,0,.8.5,2.01,2.01,0,0,0,.8.4,2.389,2.389,0,0,1,1.3.7,1.231,1.231,0,0,0,1,.5,3.552,3.552,0,0,1,.9.4l.2.2a5.023,5.023,0,0,1,.5,1.3,1.231,1.231,0,0,0,.5,1,3.339,3.339,0,0,0,1.3,1.1c.1.1.3.2.4.3a15.379,15.379,0,0,1,1.2,1.3.367.367,0,0,1,.1.3,1.268,1.268,0,0,1,.1.6,1.7,1.7,0,0,1,.1.7c0,.2.1.4.1.6-.1.3.1.5.2.8a1.234,1.234,0,0,0,.8.4,4.329,4.329,0,0,0,1.6-.1H94a5.325,5.325,0,0,0,2.4-.6c.2-.1.4-.1.6-.2.4-.1.9-.1,1.3-.2a.887.887,0,0,0,.6-1c0-.2-.1-.3-.1-.5a1.721,1.721,0,0,1,.2-1.2c.1-.1.1-.2.1-.4a5.388,5.388,0,0,1,.7-1.3,4.129,4.129,0,0,0,.7-1.1c.2-.4.4-.8.7-1.3a2.994,2.994,0,0,1,.4-.8,3.128,3.128,0,0,1,.5-1,3.322,3.322,0,0,0,.7-2.1,1.231,1.231,0,0,0-.5-1,2.7,2.7,0,0,1-.8-.7,4.141,4.141,0,0,0-2.3-.9,5.663,5.663,0,0,1-1.8-.3c-.1,0-.1,0-.2-.1a2.177,2.177,0,0,0-.8-.5,2.181,2.181,0,0,1-.5-.4,3.6,3.6,0,0,0-1.2-.8,4.875,4.875,0,0,0-.7-.3.31.31,0,0,0-.2-.1,2.751,2.751,0,0,1-1.5-.8l-1.5-1.2a3.915,3.915,0,0,1-.8-1,6.726,6.726,0,0,0-.7-1.1,2.336,2.336,0,0,0-.7-.7,5.3,5.3,0,0,1-1.2-1l-.3-.3a.951.951,0,0,0-1-.4,3.255,3.255,0,0,1-1.4-.4,5.388,5.388,0,0,1-1.3-.7,3.293,3.293,0,0,0-1.3-.7,3.269,3.269,0,0,1-1.5-1.1,1,1,0,0,0-.5-.4,2.01,2.01,0,0,1-.8-.4A3.167,3.167,0,0,0,77.7,7a.764.764,0,0,0-.5.2,5.547,5.547,0,0,1-.8.6c-.3.2-.6.3-.7.6a.31.31,0,0,1-.2.1c-.5.6-.5.4-.5.3a.367.367,0,0,1,.1-.3c.1-.3.3-.6.4-.9a1.08,1.08,0,0,0,.3-.7.365.365,0,0,0-.2-.5h-.1a6.373,6.373,0,0,0-.7-.2,3.553,3.553,0,0,1-1-.2c-.3-.1-.5,0-.8-.2-.2-.1-.5-.3-.7-.4A3.287,3.287,0,0,0,70.6,5a2.2,2.2,0,0,1-.8-.1A1.063,1.063,0,0,0,69,5a3.582,3.582,0,0,0-1.1-.4c-.2,0-.3-.2-.4-.2A10.093,10.093,0,0,1,66,3.7a5.019,5.019,0,0,0-1.2-.2h-.5a2.153,2.153,0,0,1-1.1-.2c-.1-.1-.2-.1-.4-.1a3.553,3.553,0,0,1-1-.2,7.5,7.5,0,0,0-1.5,0c-.1,0-.1.1-.2.1a6.606,6.606,0,0,1-1.5.5,2.92,2.92,0,0,1-.9.2,2.079,2.079,0,0,1-1.1.1h-.2a3.36,3.36,0,0,0-1.4.5,7.741,7.741,0,0,1-1.6.7,5.019,5.019,0,0,1-1.2.2H51.1a4.193,4.193,0,0,0-1.6.4,3.79,3.79,0,0,1-1.3.6c-.1,0-.2.1-.3.1-.3.1-.5.2-.8.3a5.076,5.076,0,0,0-1.8.9,6.549,6.549,0,0,1-1.8,1.5c-.1.1-.1.1-.2.1a2.4,2.4,0,0,0-1.2.7l-.5.4a5.547,5.547,0,0,0-.8.6,2.044,2.044,0,0,1-.9.5l-1.1.4a.367.367,0,0,1-.3.1,1.086,1.086,0,0,0-.9.4,5.022,5.022,0,0,0-1.2,1.3,6.42,6.42,0,0,1-1,1.3,2.092,2.092,0,0,1-.6.4c-.1,0-.2.1-.3.2A8.446,8.446,0,0,0,32.7,17a9.958,9.958,0,0,1-1.1,1,1.7,1.7,0,0,0-.6,1,1.272,1.272,0,0,1-.7.9,4.071,4.071,0,0,0-1.2,1.4.781.781,0,0,1-.4.4,2.336,2.336,0,0,0-.7.7,3.178,3.178,0,0,1-1,1l-.2.2a9.8,9.8,0,0,0-1.3,2.2,4.248,4.248,0,0,1-1.6,2.1,2.723,2.723,0,0,0-.8,1,5.67,5.67,0,0,1-.8,1.3c-.2.2-.3.5-.5.7a4.508,4.508,0,0,1-1,1.4,2.177,2.177,0,0,0-.5.8,5.9,5.9,0,0,1-.4.8,2.01,2.01,0,0,0-.4.8c-.2.5-.4,1-.6,1.4a1.794,1.794,0,0,1-.5.7,1.02,1.02,0,0,0-.5.8c-.1.4-.3.8-.4,1.2V39a4.779,4.779,0,0,0-.6,1.8,5.7,5.7,0,0,0-.1,1.3.1.1,0,0,1-.1.1h0a.367.367,0,0,0,.3.1,4.331,4.331,0,0,1,.1-.5C17.3,41.4,17.4,41.3,17.6,41.2Z" fill="#fff"/>
    <path id="パス_2_2_" d="M157.1,190.7c.1,0,.3.1.4.1.2,0,.3.1.5.1a1.268,1.268,0,0,1,.6.1c.3.1.6.1.9.2s.6-.1.9.1c.1.1.2,0,.4,0,.1,0,.3-.1.4-.1a2.947,2.947,0,0,0,1.3-.5,4.418,4.418,0,0,1,1.6-.6,5.7,5.7,0,0,1,1.3-.1,2.768,2.768,0,0,0,1.3-.3,6.637,6.637,0,0,1,2-.6c.1,0,.2,0,.2-.1a.758.758,0,0,1,.4-.2,16.181,16.181,0,0,0,1.8-1c.2-.1.5-.2.7-.3a1.589,1.589,0,0,0,1-.8,4.894,4.894,0,0,1,1.3-1.2,2.047,2.047,0,0,0,.8-.8,2.652,2.652,0,0,1,.5-.6l.3-.3a3.838,3.838,0,0,1,1.1-1.1l.3-.3a2.651,2.651,0,0,1,.6-.5c.1,0,.2-.1.3-.2a3.128,3.128,0,0,0,.5-1c.1-.4.3-.9.4-1.3a3.6,3.6,0,0,1,1.2-1.8,1.231,1.231,0,0,0,.5-1l.2-1.3a2.354,2.354,0,0,1,.2-.8,3.509,3.509,0,0,0,.5-.8,1.149,1.149,0,0,1,1.1-.6,2.2,2.2,0,0,1,.8.1l1.5.5c.1.1.2.1.4.1a8.6,8.6,0,0,0,1.6-.1.749.749,0,0,1,.5.1,2.177,2.177,0,0,1,.8.5c.1.1.2.2.3.2a8.793,8.793,0,0,1,1,.6c.4.2.8.4.8.9a.1.1,0,0,0,.1.1,5.672,5.672,0,0,1,1.3,2.7c.1.2.1.3.2.5a5.025,5.025,0,0,0,.8,1.2,2.186,2.186,0,0,0,.5.3c.1.1.3.1.4.2a1.6,1.6,0,0,1,.9.7,7.051,7.051,0,0,1,.7.9.664.664,0,0,0,.5.4,3.128,3.128,0,0,0,1,.5,2.092,2.092,0,0,1,.6.4c.1.1.2.2.3.2a3.915,3.915,0,0,1,1,.8,5.716,5.716,0,0,0,.8.7,3.96,3.96,0,0,0,1.9.7,2.2,2.2,0,0,1,.8.1,7.994,7.994,0,0,1,2.2,1.3,2.22,2.22,0,0,0,1.1.5,2.959,2.959,0,0,1,1,.2,1.613,1.613,0,0,1,.9.3.349.349,0,0,0,.2.1,3.553,3.553,0,0,1,1,.2,2.01,2.01,0,0,1,.8.4,3.4,3.4,0,0,0,1,.1,3.553,3.553,0,0,0,1-.2,2.208,2.208,0,0,1,1.6,0,4.3,4.3,0,0,0,1.6,0c.6-.2,1.2-.2,1.8-.4a2.2,2.2,0,0,1,.8-.1,4.1,4.1,0,0,0,1.1-.1c.1,0,.2-.1.2,0,.3.2.5,0,.8,0a2.431,2.431,0,0,0,1.8-.9,2.091,2.091,0,0,1,1.3-.7,8.8,8.8,0,0,0,1.5-.5c.4-.3.9-.6,1.3-.9a2.7,2.7,0,0,0,.7-.8c.1-.2.3-.5.4-.7.1-.1.1-.2.2-.2a1.6,1.6,0,0,0,.9-.7,2.177,2.177,0,0,1,.8-.5,1.991,1.991,0,0,0,1.2-.8,9.958,9.958,0,0,0,1-1.1,3.166,3.166,0,0,0,.8-1.2,2.929,2.929,0,0,1,1.3-1.6,3.915,3.915,0,0,0,1-.8c.2-.1.2-.3.2-.5a.749.749,0,0,1,.1-.5,8.636,8.636,0,0,1,1-1.6.52.52,0,0,0,.2-.4,11.627,11.627,0,0,0,.4-1.8,8.332,8.332,0,0,1,.4-1.5,4.18,4.18,0,0,1,.4-1,3.81,3.81,0,0,0,.3-1c.1-.4.2-.8.3-1.1l.4-1.6.2-.5c.1-.2.1-.3.2-.5a3.194,3.194,0,0,0,.3-1.4,25.121,25.121,0,0,0,.4-2.7.749.749,0,0,1,.1-.5,8.33,8.33,0,0,0,.4-1.5,1.387,1.387,0,0,0,0-.9.637.637,0,0,1,0-.6,5.019,5.019,0,0,0,.2-1.2,3.083,3.083,0,0,0,.1-1c0-.4.2-.7.1-1a3.127,3.127,0,0,1-.4-1.9,2.2,2.2,0,0,0-.1-.8,5.84,5.84,0,0,1-.4-1.8c0-.1-.1-.3-.1-.4a1.7,1.7,0,0,1-.1-.7,4.331,4.331,0,0,1,.1-.5c0-.1-.1-.4-.1-.5a3.167,3.167,0,0,0-.4-1.6.349.349,0,0,0-.1-.2,2.768,2.768,0,0,0-.3-1.3,4.252,4.252,0,0,1-.2-1.1c0-.1-.1-.3-.1-.4a13.063,13.063,0,0,0-.8-2.1.1.1,0,0,0-.1-.1h0a5.637,5.637,0,0,1-.4-1.2.52.52,0,0,0-.2-.4,11.11,11.11,0,0,1-.7-1.6,3.7,3.7,0,0,0-.5-1.1,16.964,16.964,0,0,0-1-1.4,2.186,2.186,0,0,0-.3-.5,5.6,5.6,0,0,0-1-1.5l-.6-.6a3.449,3.449,0,0,0-1.2-.9.781.781,0,0,1-.4-.4.781.781,0,0,0-.4-.4c-.4-.1-.5-.4-.8-.7a3.318,3.318,0,0,0-1.6-1.5l-.4-.2a.85.85,0,0,1-.5-.3c-.4-.3-.7-.5-1.1-.8-.1-.1-.2-.2-.3-.2a6.22,6.22,0,0,0-2.6-.9,3.96,3.96,0,0,1-1.9-.7,3,3,0,0,0-1-.4.6.6,0,0,0-.4-.1,2.92,2.92,0,0,0-.9-.2,7.569,7.569,0,0,1-1.5-.1,28.252,28.252,0,0,0-2.9-.2h-.2a1.183,1.183,0,0,0-1,.1l-1.5.6a2.456,2.456,0,0,1-1.5.5c-.1-.1-.3-.1-.4-.2a1.38,1.38,0,0,1-.4-.3,2.186,2.186,0,0,1-.5-.3,1.8,1.8,0,0,0-1.6.4c-.1.1-.2.3-.4.4a5.716,5.716,0,0,1-.7.8,2.127,2.127,0,0,1-1.5.7,2.106,2.106,0,0,0-1.3.5,3.039,3.039,0,0,0-.5.7,2.151,2.151,0,0,1-1.2.9,6.369,6.369,0,0,1-.7.2,2.107,2.107,0,0,0-1.6,1.3,4.44,4.44,0,0,1-.8,1.1,9.5,9.5,0,0,1-1.9,1.6,1,1,0,0,0-.4.5c-.1.3-.3.7-.4,1l-.6,1.2a5.9,5.9,0,0,1-.4.8,6.89,6.89,0,0,0-.3.8l-.4.9c-.2.4-.3.9-.5,1.3a5.783,5.783,0,0,1-.5,1.4c0,.1-.1.2-.1.4a5.024,5.024,0,0,1-.5,1.3,14.8,14.8,0,0,0-.8,1.3,5.9,5.9,0,0,0-.4.8,1.905,1.905,0,0,1-.5,1,.781.781,0,0,1-.4.4,2.491,2.491,0,0,1-1.9.2,4.973,4.973,0,0,0-2.1-.1,6.7,6.7,0,0,1-2,0h-.2c-.4.1-.9.1-1.3.2a2.768,2.768,0,0,1-.9.1c-.7.1-.8,0-1.1-.7a.6.6,0,0,1-.1-.4,7.772,7.772,0,0,1-.2-1.6.6.6,0,0,0-.1-.4,6.118,6.118,0,0,0-.5-1.2.6.6,0,0,1-.1-.4,9.364,9.364,0,0,0-.4-1.6,1.087,1.087,0,0,1-.1-.5c0-.4-.1-.7-.1-1a.91.91,0,0,0-.4-.8,4.129,4.129,0,0,1-.7-1.1,5.852,5.852,0,0,1-.5-2.2,2.875,2.875,0,0,0-.7-1.8,5.716,5.716,0,0,1-.7-.8,2.336,2.336,0,0,0-.7-.7,1.205,1.205,0,0,1-.5-.5,4.129,4.129,0,0,0-.7-1.1,9.907,9.907,0,0,0-1.1-1.7c-.2-.2-.4-.5-.7-.6a9.143,9.143,0,0,1-1.4-.7,8.636,8.636,0,0,1-1.6-1c-.1-.1-.2-.1-.3-.2a2.652,2.652,0,0,1-.6-.5,2.666,2.666,0,0,0-1.4-.7,2.959,2.959,0,0,0-1-.2,4.1,4.1,0,0,0-1.1-.1,1.421,1.421,0,0,1-.6-.2,2.506,2.506,0,0,1-.7-.4,2.016,2.016,0,0,0-1.1-.3c-.2,0-.4-.1-.6-.1a.471.471,0,0,1-.6-.1c-.1,0-.2-.1-.3,0a2.92,2.92,0,0,1-.9.2,6.522,6.522,0,0,1-2.4.2.756.756,0,0,0-.4.1c-.1.1-.2.1-.4,0a2.067,2.067,0,0,1-1.4-1l-.3-.3a11.4,11.4,0,0,0-1.9-1,2.768,2.768,0,0,1-1.8-2.1,4.117,4.117,0,0,0-1-2.1l-.2-.2a1.794,1.794,0,0,1-.5-.7,1.794,1.794,0,0,0-.5-.7,1.38,1.38,0,0,1-.3-.4,2.094,2.094,0,0,0-1.5-1.1,4.4,4.4,0,0,0-1-.2.858.858,0,0,1-.7-.6,1.756,1.756,0,0,0-.4-.5,5.241,5.241,0,0,0-1.1-1l-.2-.2a10.95,10.95,0,0,1-1.1-1,.1.1,0,0,0-.1-.1,3.039,3.039,0,0,1-.7-.5,2.507,2.507,0,0,0-.7-.4c-.2-.1-.4-.1-.6-.2a3,3,0,0,1-1-.4,4,4,0,0,0-1.8-.7,1.7,1.7,0,0,0-.7-.1,6.888,6.888,0,0,0-.8.3.44.44,0,0,1-.5-.1,2.7,2.7,0,0,1-.7-.8,1.9,1.9,0,0,0-1.1-.7,1.884,1.884,0,0,1-.8-.2.454.454,0,0,0-.5,0,.878.878,0,0,1-.7-.1.638.638,0,0,0-.6,0,.349.349,0,0,1-.2.1,4.025,4.025,0,0,0-2,.9,2.186,2.186,0,0,0-.5.3,2.787,2.787,0,0,1-1.8.1,4.887,4.887,0,0,0-2.4.1,5.067,5.067,0,0,1-1.3.2h-.3a2.886,2.886,0,0,0-1.9,1.3,6.47,6.47,0,0,1-.9.8.349.349,0,0,0-.2.1,1.746,1.746,0,0,1-1.2-.4,4.793,4.793,0,0,0-2-.7,1.689,1.689,0,0,1-1-.3c-.4-.1-.7-.3-1.1-.4a7.613,7.613,0,0,0-2.1-.3.9.9,0,0,1-.5-.1,2.438,2.438,0,0,0-1.2,0,1.1,1.1,0,0,1-.8,0,2.485,2.485,0,0,0-.8-.1h-.5c-.2,0-.3-.1-.4-.3-.1-.1-.1-.2-.1-.4a.6.6,0,0,1-.1-.4,2.223,2.223,0,0,0-.8-1.3.909.909,0,0,1-.4-.8,2.2,2.2,0,0,1,.1-.8,2.232,2.232,0,0,1,.6-1.3c.3-.3.7-.5,1-.8a6.1,6.1,0,0,0,1.6-1.2,3.114,3.114,0,0,0,.9-.7c.2-.3.7-.4,1-.7a5.582,5.582,0,0,1,.8-.5c.5-.3.9-.6,1.5-.9a7.458,7.458,0,0,0,1.2-.7,4.418,4.418,0,0,1,1.6-.6,1.8,1.8,0,0,0,.9-.4,2.947,2.947,0,0,1,1.3-.5c.3-.1.6-.1.9-.2a2.959,2.959,0,0,1,1-.2h.9a8.447,8.447,0,0,0,1.7-.5,7.494,7.494,0,0,1,1.6-.5,5.9,5.9,0,0,0,.8-.4,8.651,8.651,0,0,1,1.7-.7,6.117,6.117,0,0,0,1.2-.5,1.087,1.087,0,0,1,.5-.1,1.949,1.949,0,0,0,.8-.1.367.367,0,0,1,.3-.1,2.354,2.354,0,0,0,.8-.2,3.194,3.194,0,0,1,1.4-.3,1.645,1.645,0,0,0,1-.2c.2-.1.4-.1.6-.2l.5-.2a3.453,3.453,0,0,1,1.8-.5.764.764,0,0,0,.5-.2c.6-.3,1.2-.5,1.8-.8a.6.6,0,0,1,.4-.1,4.179,4.179,0,0,0,1-.4,3.552,3.552,0,0,1,.9-.4,2.389,2.389,0,0,0,1.3-.7,2.7,2.7,0,0,0,.7-.8c.2-.2.4-.5.7-.6.6-.4,1.1-.8,1.6-1.2a.52.52,0,0,1,.4-.2,2.589,2.589,0,0,0,1.1-.7,1.381,1.381,0,0,1,.4-.3,1.205,1.205,0,0,0,.5-.5,9.062,9.062,0,0,1,1.6-1.1l1.5-.9a3.915,3.915,0,0,0,1-.8,19.2,19.2,0,0,1,1.4-1.5c.1-.1.2-.3.3-.4a.52.52,0,0,0,.2-.4,7.006,7.006,0,0,0,.8-1,12.9,12.9,0,0,0,.9-1.6,6.42,6.42,0,0,1,1-1.3,1.231,1.231,0,0,0,.5-1,2.45,2.45,0,0,1,.4-1.2,4.875,4.875,0,0,0,.3-.7,5.638,5.638,0,0,1,.4-1.2c.1-.3.3-.7.4-1a5.638,5.638,0,0,1,.4-1.2.1.1,0,0,1,.1-.1,3.329,3.329,0,0,0,.1-1.4,2.2,2.2,0,0,1-.1-.8,6.376,6.376,0,0,1,.2-.7,5.471,5.471,0,0,0,.4-3.1.446.446,0,0,1,0-.5,2.768,2.768,0,0,0,.1-.9,4.868,4.868,0,0,1,.1-1.2.3.3,0,0,0,0-.4,1.7,1.7,0,0,1-.1-.7c0-.1-.1-.2-.1-.4a4.4,4.4,0,0,1-.2-1,1.672,1.672,0,0,1,.1-1.2.854.854,0,0,0,0-.7,2.2,2.2,0,0,1-.1-.8,1.854,1.854,0,0,0-.2-.7c-.1-.1-.2-.3-.3-.4s-.1-.3-.2-.4c-.2-.6-.3-1.2-.5-1.8-.1-.4-.2-.7-.3-1.1a1.268,1.268,0,0,1-.1-.6c-.1-.5-.1-1-.2-1.6a1.949,1.949,0,0,1-.1-.8.349.349,0,0,0-.1-.2c-.2-.4-.5-.8-.7-1.2a10.593,10.593,0,0,0-1-1.2c-.1-.1-.1-.1-.1-.2a2.7,2.7,0,0,0-.7-.8,1.845,1.845,0,0,1-.5-1.2,4.253,4.253,0,0,0-.2-1.1.664.664,0,0,0-.4-.5.67.67,0,0,1-.4-.7,2.2,2.2,0,0,0-.4-1.3,1,1,0,0,0-.4-.5,3.043,3.043,0,0,1-.8-.8,8.081,8.081,0,0,0-1.6-1.6,3.915,3.915,0,0,1-.8-1,1.794,1.794,0,0,0-.5-.7,10.54,10.54,0,0,0-1.1-.7c-.4-.2-.8-.5-1.2-.7-.2-.1-.3-.3-.4-.4l-.9-1.2a3.128,3.128,0,0,0-1-.5.1.1,0,0,1-.1-.1h0a3.508,3.508,0,0,1-.8-.5,6.279,6.279,0,0,1-1.2-1.1.52.52,0,0,0-.4-.2,5.359,5.359,0,0,0-1.1-.5,2.01,2.01,0,0,1-.8-.4c-.3-.3-.7-.5-.9-1a1.205,1.205,0,0,0-.5-.5,5.547,5.547,0,0,1-.8-.6c-.2-.2-.5-.3-.7-.5A8.421,8.421,0,0,1,135,25a1.421,1.421,0,0,0-.6-.2c-.2-.1-.4-.1-.6-.2a10.54,10.54,0,0,0-1.1-.7,5.023,5.023,0,0,0-1.3-.5,13.635,13.635,0,0,1-1.7-.4c-.1,0-.2-.1-.3-.1a1.7,1.7,0,0,1-.7-.1c-.5-.1-1-.3-1.5-.4-.4-.1-.7-.2-1.1-.3-.1,0-.1-.1-.2-.1a7.459,7.459,0,0,0-1.2-.7,10.926,10.926,0,0,0-1.7-.5,4.869,4.869,0,0,0-1.2-.1,2.953,2.953,0,0,1-1.3-.2c-.2,0-.3-.1-.5-.1h-.4a13.636,13.636,0,0,1-1.7-.4,5.339,5.339,0,0,0-2.2-.2,7.569,7.569,0,0,1-1.5-.1c-.1,0-.3-.1-.4-.1a4.013,4.013,0,0,1-1.5-.3.9.9,0,0,0-.5-.1,5.7,5.7,0,0,0-1.3.1,8.6,8.6,0,0,1-1.6.1c-.2,0-.4-.1-.7-.1-.2,0-.4.1-.6.1h-1.1a8.083,8.083,0,0,0-1.6-.1c-.2,0-.4.1-.5,0-.5-.2-1.1-.3-1.6-.5a4.958,4.958,0,0,0-2-.8c-.1,0-.2-.1-.3-.1a3.091,3.091,0,0,0-.8-.2,1.421,1.421,0,0,1-.6-.2c-.4-.1-.7-.3-1.1-.4a2.118,2.118,0,0,1-.7-.3,2.092,2.092,0,0,1-.6-.4c-.2-.1-.5-.3-.7-.4-.2-.2-.5-.3-.7-.5-.2-.1-.3-.2-.5-.2a.55.55,0,0,1-.5-.3,3.915,3.915,0,0,1-.8-1,2.361,2.361,0,0,0-.9-.8l-.7-.4a1.575,1.575,0,0,1-.7-.7,1.612,1.612,0,0,0-.4-.7,1,1,0,0,0-.5-.4,2.092,2.092,0,0,1-.4-.6,1.143,1.143,0,0,0-.7-.8c-.1-.1-.2-.1-.2-.2a4.671,4.671,0,0,0-1-.5,3.048,3.048,0,0,1-1.6-.8c-.1-.8-.2-.9-.4-1.1a.52.52,0,0,0-.4-.2,5.71,5.71,0,0,0-2.1-1.3c-.1-.1-.3-.1-.4-.2A4.44,4.44,0,0,0,82,4.5a.781.781,0,0,1-.4-.4c-.1-.2-.1-.4.1-.5.1-.1.2-.1.2-.2a1.672,1.672,0,0,1,1.2-.1,2.485,2.485,0,0,0,.8.1,1.929,1.929,0,0,1,1,.3,2.994,2.994,0,0,0,.8.4,1.374,1.374,0,0,1,.8.5c.1.1.2.3.4.4l.6.6a.575.575,0,0,1,.6.4,4.44,4.44,0,0,0,.8,1.1,1.566,1.566,0,0,0,1.5.5h1.4a.829.829,0,0,0,.8-.3c.4-.4.3-.7,0-1.2-.1,0-.2-.1-.4-.1a1.47,1.47,0,0,1-.5-.6,8.341,8.341,0,0,0-.8-1.2c-.1-.1-.2-.3-.4-.4A3.182,3.182,0,0,0,89,2.5a.52.52,0,0,0-.4-.2c-.2-.1-.3-.3-.5-.4a14.166,14.166,0,0,0-1.8-.8A2.966,2.966,0,0,0,84.7.9a4.1,4.1,0,0,0-1.1.1,8.083,8.083,0,0,0-2.2.7c-.1.1-.3.1-.4.2a4.617,4.617,0,0,1-1.5.9,1.949,1.949,0,0,1-.8.1,6.117,6.117,0,0,1-1.2-.5,4.8,4.8,0,0,0-1.7-.5,2.769,2.769,0,0,1-.9-.1A14.262,14.262,0,0,1,72.2.9,3.529,3.529,0,0,0,70.8.6,1.128,1.128,0,0,1,70,.5a2.769,2.769,0,0,0-.9-.1A4.253,4.253,0,0,1,68,.2a9.465,9.465,0,0,0-1.8-.5c-.1-.1-.2,0-.3,0H62.5a1.7,1.7,0,0,1-.7-.1,1.136,1.136,0,0,1-.8.3A2.787,2.787,0,0,1,60,0c-.3,0-.5.1-.8.1a4.529,4.529,0,0,1-1.6.3L55.5.7,54,1c-.6.2-1.2.5-1.9.7-.1,0-.1,0-.2.1a5.638,5.638,0,0,0-1.2.4c-.1.1-.1.1-.2.1a2.92,2.92,0,0,0-.9.2.749.749,0,0,1-.5.1.764.764,0,0,0-.5.2,3.881,3.881,0,0,1-1.1.6,6.393,6.393,0,0,0-1.6.6c-.7.3-1.5.5-2.2.8a4.671,4.671,0,0,0-1,.5l-1.4.9a4.863,4.863,0,0,0-1.4,1.1,5.547,5.547,0,0,1-.8.6c-.2.1-.5.3-.7.4a3.766,3.766,0,0,1-1.5.9.1.1,0,0,0-.1.1,4.036,4.036,0,0,0-1.3,1.3.781.781,0,0,1-.4.4,1.208,1.208,0,0,0-.7.7l-.3.3a4.728,4.728,0,0,1-1.2.7,3.007,3.007,0,0,0-1.4,1.1l-.2.2a2.7,2.7,0,0,0-.7.8,2.7,2.7,0,0,1-.7.8,2.186,2.186,0,0,0-.3.5,3.045,3.045,0,0,1-.9,1.3c-.5.6-1.1,1.1-1.6,1.8a1.794,1.794,0,0,0-.5.7,2.092,2.092,0,0,1-.4.6,6.034,6.034,0,0,1-.8.8,1,1,0,0,0-.4.5c-.3.5-.6,1-.9,1.4s-.7.9-1,1.3a4.62,4.62,0,0,1-.7.7,1.756,1.756,0,0,0-.4.5,10.93,10.93,0,0,1-.8,1.5l-.7,1.1c-.2.4-.4.8-.7,1.3-.1.1-.1.3-.2.4a2.177,2.177,0,0,0-.5.8,10.092,10.092,0,0,1-.7,1.5c-.2.4-.3.7-.5,1.1a2.177,2.177,0,0,1-.5.8,1.794,1.794,0,0,0-.5.7,7.2,7.2,0,0,0-1,2.4,4.179,4.179,0,0,1-.4,1,5.582,5.582,0,0,1-.5.8,5.019,5.019,0,0,0-.2,1.2,4.331,4.331,0,0,1-.1.5,2.854,2.854,0,0,0,0,1.3c0,.1.1.3.1.4v.8a2.92,2.92,0,0,0,.2.9c.1.1.2.2.3.2s.1-.1.2-.1c.3-.3.5-.6.8-.9a2.186,2.186,0,0,0,.3-.5,2.177,2.177,0,0,1,.5-.8.1.1,0,0,1,.1-.1h0c0-.4.1-.9.1-1.3a6.356,6.356,0,0,1,.6-1.8l.2-.4c.1-.4.3-.8.4-1.2a2.177,2.177,0,0,1,.5-.8,1.794,1.794,0,0,0,.5-.7,3.506,3.506,0,0,0,.6-1.4,2.01,2.01,0,0,1,.4-.8,2.01,2.01,0,0,0,.4-.8,2.177,2.177,0,0,1,.5-.8,4.508,4.508,0,0,0,1-1.4,1.794,1.794,0,0,1,.5-.7,3.528,3.528,0,0,0,.8-1.3,1.691,1.691,0,0,1,.7-1A4.116,4.116,0,0,0,26,25.5a6.113,6.113,0,0,1,1.3-2.2.215.215,0,0,1,.2-.2,3.178,3.178,0,0,0,1-1,2.336,2.336,0,0,1,.7-.7.781.781,0,0,0,.4-.4,4.071,4.071,0,0,1,1.2-1.4,1.6,1.6,0,0,0,.7-.9,2.075,2.075,0,0,1,.6-1,9.958,9.958,0,0,1,1.1-1c.6-.5,1.1-1,1.8-1.5.1-.1.2-.1.3-.2a2.092,2.092,0,0,0,.6-.4,6.42,6.42,0,0,0,1-1.3A4.894,4.894,0,0,1,38.1,12a1.086,1.086,0,0,1,.9-.4.367.367,0,0,0,.3-.1l1.1-.4a2.622,2.622,0,0,0,.9-.5,5.547,5.547,0,0,1,.8-.6l.5-.4a2.925,2.925,0,0,1,1.2-.7c.1,0,.1-.1.2-.1a8.446,8.446,0,0,0,1.8-1.5,3.1,3.1,0,0,1,1.8-.9c.3-.1.5-.2.8-.3a.367.367,0,0,1,.3-.1A3.1,3.1,0,0,0,50,5.4,2.934,2.934,0,0,1,51.6,5h1.2a.749.749,0,0,0,.5-.1,3.287,3.287,0,0,0,1.6-.7,5.783,5.783,0,0,1,1.4-.5H56c.4.2.7,0,1.1-.1a2.92,2.92,0,0,1,.9-.2,8.8,8.8,0,0,0,1.5-.5.349.349,0,0,1,.2-.1,8.6,8.6,0,0,1,1.6.1,1.645,1.645,0,0,0,1,.2.756.756,0,0,1,.4.1,1.978,1.978,0,0,0,1.1.2h.5a5.019,5.019,0,0,1,1.2.2c.5.2,1,.5,1.5.7.2.1.3.2.4.2a2.286,2.286,0,0,0,1,.7,1.185,1.185,0,0,1,.8-.1,2.2,2.2,0,0,0,.8.1,2.934,2.934,0,0,1,1.6.4,4.348,4.348,0,0,1,.7.4c.2.2.5.1.8.2a2.959,2.959,0,0,0,1,.2,1.854,1.854,0,0,1,.7.2.382.382,0,0,1,.3.5h0a4.874,4.874,0,0,1-.3.7,3.552,3.552,0,0,0-.4.9.367.367,0,0,0-.1.3c0,.1.1.2.2.3.1,0,.2,0,.2-.1a1.344,1.344,0,0,1,.7-.6,5.547,5.547,0,0,0,.8-.6.365.365,0,0,1,.5-.2,2.276,2.276,0,0,1,1.6.4,2.01,2.01,0,0,0,.8.4.664.664,0,0,1,.5.4,3.269,3.269,0,0,0,1.5,1.1,5.388,5.388,0,0,1,1.3.7,5.388,5.388,0,0,0,1.3.7,5.732,5.732,0,0,0,1.4.4,1.159,1.159,0,0,1,1,.4l.3.3a4,4,0,0,0,1.2,1,1.575,1.575,0,0,1,.7.7,10.54,10.54,0,0,1,.7,1.1,8.744,8.744,0,0,0,.8,1l1.5,1.2a2.751,2.751,0,0,0,1.5.8.349.349,0,0,1,.2.1,4.875,4.875,0,0,0,.7.3,8.341,8.341,0,0,1,1.2.8,1,1,0,0,0,.5.4,3.508,3.508,0,0,1,.8.5.349.349,0,0,0,.2.1,5.662,5.662,0,0,0,1.8.3,3.337,3.337,0,0,1,2.3.9,5.716,5.716,0,0,1,.8.7,1.016,1.016,0,0,1,.5,1,3.771,3.771,0,0,1-.7,2.1,1.389,1.389,0,0,0-.5,1,2.01,2.01,0,0,1-.4.8,8.265,8.265,0,0,1-.7,1.3,4.129,4.129,0,0,1-.7,1.1,5.387,5.387,0,0,0-.7,1.3c-.1-.2-.1,0-.1.1a2.537,2.537,0,0,0-.2,1.2c0,.2.1.3.1.5a.887.887,0,0,1-.6,1,5.067,5.067,0,0,1-1.3.2,1.421,1.421,0,0,0-.6.2,4.751,4.751,0,0,1-2.4.6h0a4.329,4.329,0,0,1-1.6.1.909.909,0,0,1-.8-.4.778.778,0,0,1-.2-.8c.1-.2-.1-.4-.1-.6a1.7,1.7,0,0,0-.1-.7,1.268,1.268,0,0,1-.1-.6.367.367,0,0,0-.1-.3,15.379,15.379,0,0,1-1.2-1.3,1.38,1.38,0,0,0-.4-.3,4.735,4.735,0,0,1-1.3-1.1,1.389,1.389,0,0,1-.5-1,2.947,2.947,0,0,0-.5-1.3.215.215,0,0,0-.2-.2A1.268,1.268,0,0,0,85,26a3.128,3.128,0,0,1-1-.5,2.091,2.091,0,0,0-1.3-.7,2.01,2.01,0,0,1-.8-.4,2.177,2.177,0,0,0-.8-.5,2.636,2.636,0,0,0-2.7-.3,5.84,5.84,0,0,1-1.8.4h-.4a2.7,2.7,0,0,0-1.2.1c-.1,0-.1,0-.1.1a4.058,4.058,0,0,1-1.9.4,6.42,6.42,0,0,0-1.3,1,2.7,2.7,0,0,1-1.7,1,3.552,3.552,0,0,0-.9.4A3.459,3.459,0,0,0,68,28a4.863,4.863,0,0,1-1.1,1.4c-.1.1-.3.2-.4.3a.215.215,0,0,0-.2.2,10.54,10.54,0,0,0-.7,1.1A7.76,7.76,0,0,1,64,33.4c-.1.2-.2.3-.3.5s-.1.4-.2.6c-.1.1-.1.2-.2.3a3.592,3.592,0,0,0-.7,1c-.1.2-.1.4-.2.5-.1.6-.3,1.2-.4,1.7a.52.52,0,0,0-.2.4,2.01,2.01,0,0,0-.4.8,4.248,4.248,0,0,1-1,1.7.758.758,0,0,0-.2.4,1.991,1.991,0,0,1-.8,1.2,12.492,12.492,0,0,1-1.2.9,2.666,2.666,0,0,1-1.4.7.908.908,0,0,1-1,0,.44.44,0,0,0-.5.1,3.592,3.592,0,0,0-1,.7l-.7.7a1.794,1.794,0,0,1-.7.5.781.781,0,0,0-.4.4,4.117,4.117,0,0,1-2.1,1,1.135,1.135,0,0,0-.8.3,2.836,2.836,0,0,0-1,.9A3.524,3.524,0,0,1,46.8,50c-.2.1-.5.1-.7.2a1.934,1.934,0,0,0-.9.5,3.46,3.46,0,0,1-1.1,1,1.777,1.777,0,0,1-1,.4,1.945,1.945,0,0,0-1.4.9c-.3.5-.7.9-1,1.4a.283.283,0,0,1-.5,0l-.1-.1a.31.31,0,0,1-.1-.2c-.1-.2-.1-.4-.2-.6a4.179,4.179,0,0,0-.4-1,.822.822,0,0,0-.6-.4,1.8,1.8,0,0,0-.9.4,2.7,2.7,0,0,0-1,1.7v.3a1.826,1.826,0,0,0,.8,1.3c.1,0,.2.1.3.2a2.651,2.651,0,0,1,.6.5,3.915,3.915,0,0,0,.8,1,6.9,6.9,0,0,0,1.8,1.6.664.664,0,0,1,.4.5c.1.3.1.7.2,1a5.838,5.838,0,0,0,.8,2.2.1.1,0,0,0,.1.1h0a5.025,5.025,0,0,1,.8,1.2.367.367,0,0,1,.1.3,3.079,3.079,0,0,1,.3,1.3,2.353,2.353,0,0,0,.2.8,9.062,9.062,0,0,0,1.1,1.6,3.508,3.508,0,0,1,.5.8,16.18,16.18,0,0,0,1,1.8.781.781,0,0,0,.4.4,2.091,2.091,0,0,1,.7,1.3,4.874,4.874,0,0,0,.4,1.1c.1.3.2.7.3,1a4.875,4.875,0,0,0,.3.7,2.4,2.4,0,0,1,.4,1.6c-.1.3.1.7-.1,1a2.863,2.863,0,0,0,.6,2.2.955.955,0,0,1,.2,1,6.154,6.154,0,0,0-.2,1.9,2.36,2.36,0,0,0,.7,1.6c.2.2.3.4.2.6v1.6a7.719,7.719,0,0,0,.2,1.5c.1.3.2.6.3,1-.1.4-.3.8-.4,1.2a3.079,3.079,0,0,0-.3,1.3,1.922,1.922,0,0,1-.4,1.2,11.111,11.111,0,0,0-.7,1.6,10.926,10.926,0,0,1-.5,1.7,19.986,19.986,0,0,1-1,2.1,2.092,2.092,0,0,1-.4.6,2.186,2.186,0,0,0-.3.5,5.67,5.67,0,0,1-.8,1.3l-.9.9a.52.52,0,0,1-.4.2,2.01,2.01,0,0,0-.8.4,3.552,3.552,0,0,1-.9.4,4.348,4.348,0,0,0-.7.4,2.01,2.01,0,0,1-.8.4,8.488,8.488,0,0,0-2.2.9c-.1.1-.3.1-.4.2-.5.1-1,.3-1.5.4h-.1c-.5.1-1.1.1-1.6.2h-.2a5.022,5.022,0,0,0-2.1-.2h-.4a2.485,2.485,0,0,0-.8-.1,2.3,2.3,0,0,1-1.4-.4,2.843,2.843,0,0,0-1.2-.4c-.1,0-.2-.1-.4-.2a2.092,2.092,0,0,1-.6-.4,5.547,5.547,0,0,1-.8-.6,1.235,1.235,0,0,0-.8-.4c-.2-.1-.4-.1-.5-.2a11.4,11.4,0,0,0-1.9-1,.1.1,0,0,1-.1-.1h0c-.3-.1-.5-.2-.8-.3l-1.2-.6c-.3-.2-.5-.6-.8-.8a8.649,8.649,0,0,0-1-.7v-.3a3.039,3.039,0,0,1-.5-.7,1.962,1.962,0,0,0-.9-.9c-.5-.4-.9-.7-1.5-1.1-.3-.2-.5-.5-.8-.7-.1-.3-.3-.6-.4-.9-.1-.2-.1-.4-.2-.6a.664.664,0,0,0-.4-.5,1.794,1.794,0,0,1-.7-.5,4.62,4.62,0,0,1-.7-.7,4.532,4.532,0,0,1-1.1-1.9,1.421,1.421,0,0,0-.2-.6,2.389,2.389,0,0,1-.5-1.4c-.1-.5-.2-.9-.3-1.4a3.083,3.083,0,0,1-.1-1c.1-.1,0-.2-.1-.3-.1-.6,0-1.2-.1-1.8,0-.1.1-.2.1-.4a.6.6,0,0,0-.1-.4l-.6-1.5a5.9,5.9,0,0,0-.4-.8.661.661,0,0,1-.1-.6v-.2a3.083,3.083,0,0,1-.1-1,.749.749,0,0,0-.1-.5c-.1-.1-.1-.4-.1-.5V76.1a5.7,5.7,0,0,1-.1-1.3c0-.1,0-.1-.1-.1a1.376,1.376,0,0,1-.1-1.1c0-.1.1-.3.1-.4a3.553,3.553,0,0,0,.2-1,12.052,12.052,0,0,1,0-1.9,2.959,2.959,0,0,0-.2-1,1.95,1.95,0,0,1,0-1.5,3.1,3.1,0,0,0,.1-1.9c-.1-.4-.1-.7-.2-1.2a6.6,6.6,0,0,1,.1-1.4.349.349,0,0,1,.1-.2.471.471,0,0,0,.1-.6,1.7,1.7,0,0,1,.1-.7,5.852,5.852,0,0,0,.5-2.2,1.268,1.268,0,0,1,.1-.6.9.9,0,0,0,.1-.5,6.944,6.944,0,0,0,.5-1.3.1.1,0,0,1,.1-.1h0a2.01,2.01,0,0,0,.4-.8,4.875,4.875,0,0,1,.3-.7,2.958,2.958,0,0,0,.2-1,5.019,5.019,0,0,1,.2-1.2,9.143,9.143,0,0,1,.7-1.4,6.117,6.117,0,0,0,.5-1.2,4.418,4.418,0,0,1,.6-1.6.1.1,0,0,1,.1-.1,3.506,3.506,0,0,1,.6-1.4c.1-.1.1-.3.2-.4,0-.2.1-.3.2-.5a8.423,8.423,0,0,0,.8-2.7,1.949,1.949,0,0,0,.1-.8c.2-.3-.1-.5,0-.8a.67.67,0,0,0-.3-.8.764.764,0,0,0-.5-.2.781.781,0,0,0-.4.4,1.087,1.087,0,0,0-.1.5c0,.1-.1.1,0,.2a3.4,3.4,0,0,1-.2,1.4,12.129,12.129,0,0,0-.5,1.4,1.949,1.949,0,0,1-1,1,2.189,2.189,0,0,0-1,.9,3.582,3.582,0,0,0-.4,1.1,2.628,2.628,0,0,1-.7,1.5,1.012,1.012,0,0,0-.4.7,3.7,3.7,0,0,1-.5,1.1,1.08,1.08,0,0,0-.3.7c-.1.3-.1.5-.2.8a1.854,1.854,0,0,1-.2.7,3.039,3.039,0,0,0-.5.7c-.2.2-.3.4-.5.6a1.421,1.421,0,0,0-.2.6,2.959,2.959,0,0,1-.2,1,1.445,1.445,0,0,0-.2.7v.4a27.411,27.411,0,0,0-.5,2.8,6.753,6.753,0,0,0-.2,1.4l-.2,1.3c0,.1,0,.2-.1.2a5.228,5.228,0,0,0-.6,1.6l-.2.4c-.4.5-.8,1.1-1.2,1.6a7.637,7.637,0,0,1-.9.9l-.4.4a2.7,2.7,0,0,1-.8.7l-.2.2a7.1,7.1,0,0,0-1,1.4c0,.1-.1.2-.2.3-.2.3-.4.5-.6.8a7.459,7.459,0,0,0-.7,1.2c-.1.1-.1.2-.2.2-.5.4-.7,1.1-1.2,1.5.8.1.7.2.7.2a1.374,1.374,0,0,1-.5.8.367.367,0,0,0-.1.3v.8a3.083,3.083,0,0,1,0,1.9c0,.1-.1.2,0,.4a1.785,1.785,0,0,0,.9,1.2,3.128,3.128,0,0,0,1,.5,1.612,1.612,0,0,1,.7.4,1.051,1.051,0,0,0,1.3,0,2.7,2.7,0,0,0,.7-.8,3.508,3.508,0,0,1,.5-.8,15.934,15.934,0,0,1,1.3-1.3.52.52,0,0,0,.2-.4.9.9,0,0,0,.1-.5c0-.1.1-.3.2-.3a.215.215,0,0,1,.2.2.31.31,0,0,1,.1.2c.2.4.1.8.3,1.2a1.7,1.7,0,0,1,.1.7v.7a5.7,5.7,0,0,1-.1,1.3,1.388,1.388,0,0,0,0,.9c0,.1.1.1.1.2A11.13,11.13,0,0,1,8,84.9a1.8,1.8,0,0,0,.4.9c.1.2.2.2.2.4a4.348,4.348,0,0,1,.4.7,1.854,1.854,0,0,1,.2.7c.1.2.2.5.3.7a1.689,1.689,0,0,1,.2.5,4.179,4.179,0,0,0,.4,1,4.552,4.552,0,0,1,.5,2,5.019,5.019,0,0,0,.2,1.2c.1.4.5.6.6,1,.1.1.2.2.3.2.2.1.3.2.5.3a.764.764,0,0,0,.5.2,2.092,2.092,0,0,1,.6.4,4.351,4.351,0,0,1,1,1.9.349.349,0,0,0,.1.2A5.936,5.936,0,0,0,15.7,99a14.308,14.308,0,0,0,1.5,1.1c.1.1.3.1.4.2a2.186,2.186,0,0,1,.5.3,1.555,1.555,0,0,1,.8.6,2.181,2.181,0,0,0,.4.5,2.092,2.092,0,0,1,.4.6,3.738,3.738,0,0,0,1.3,1.5,3.582,3.582,0,0,0,1.1.4,2.016,2.016,0,0,1,1.1.3c.2.1.4.1.5.2a1.135,1.135,0,0,1,.8.3c.2.1.3.1.5.2a5.291,5.291,0,0,1,2.1,1.1,2.186,2.186,0,0,0,.5.3c.3.2.6.3.9.5.1.1.2.1.4.1a1.613,1.613,0,0,1,.9.3,2.994,2.994,0,0,0,.8.4,4.191,4.191,0,0,0,1.5.4h6.5c.7-.2,1.4-.5,2.1-.7a.1.1,0,0,0,.1-.1h0a5.094,5.094,0,0,1,1.7-.7l1.8-.6a7.459,7.459,0,0,0,1.2-.7,5.5,5.5,0,0,1,.9-.7,1.591,1.591,0,0,0,.9-.9c.1-.1.1-.2.2-.3a6.071,6.071,0,0,0,.7-1,.9.9,0,0,1,.6-.6,2.651,2.651,0,0,0,.6-.5.52.52,0,0,1,.4-.2.3.3,0,0,1,.4,0c.3.2.5.3.8.5a4.129,4.129,0,0,0,1.1.7,1.486,1.486,0,0,0,.9.2h.7a5.537,5.537,0,0,1,1.8.2,1.929,1.929,0,0,1,1,.3.6.6,0,0,0,.4.1,5.7,5.7,0,0,0,1.3-.1c.1-.1.1,0,.2,0a14.769,14.769,0,0,0,2.1-.1,5.853,5.853,0,0,1,1.3.2,6.874,6.874,0,0,0,2.4.5h.7a.6.6,0,0,1,.4.1,1.949,1.949,0,0,0,.8.1,1.854,1.854,0,0,1,.7.2.215.215,0,0,1,.2.2c.2,0,.5-.1.7,0a4.876,4.876,0,0,0,.7.3c.1.1.2.1.2.2a2.7,2.7,0,0,0,2.1.7h1.5a2.92,2.92,0,0,1,.9.2,1.779,1.779,0,0,1,.8.7,1.756,1.756,0,0,0,.4.5,3.915,3.915,0,0,0,1,.8,3.194,3.194,0,0,0,1.4.3c.8,0,.8,0,1.3.6a2.186,2.186,0,0,1,.3.5l.4.5a1.548,1.548,0,0,0,1.1.8,2.354,2.354,0,0,0,.8.2,1.174,1.174,0,0,1,.9,1c0,.1.1.1.1.2a1.2,1.2,0,0,0,.7,1c.1.1.1.1.2.1a2.088,2.088,0,0,1,.8,1.6,5.019,5.019,0,0,0,.2,1.2,1.012,1.012,0,0,0,.4.7,1.02,1.02,0,0,1,.5.8,2.769,2.769,0,0,1,.1.9.749.749,0,0,0,.1.5,3.194,3.194,0,0,1,.3,1.4v1.6c0,.1,0,.2.1.2a1.5,1.5,0,0,1,.4,1.1,2.2,2.2,0,0,0,.1.8,1.268,1.268,0,0,1,.1.6.6.6,0,0,0,.1.4,3.083,3.083,0,0,1,.1,1,4.869,4.869,0,0,0-.1,1.2,1.95,1.95,0,0,1-.1.8,3.091,3.091,0,0,0-.2.8,2.016,2.016,0,0,1-.3,1.1,2.392,2.392,0,0,0-.3,1.5c.1.3.1.6.2.9a2.966,2.966,0,0,1,.2,1.6,8.753,8.753,0,0,1-.2,1.6,4.191,4.191,0,0,1-.4,1.5,1.95,1.95,0,0,0-.1,1.3l.2.5a1.721,1.721,0,0,1,.2,1.2,8.753,8.753,0,0,1-.2,1.6,6.373,6.373,0,0,0-.2.7c-.1.3,0,.5-.1.7s.1.5.1.7c-.1.2,0,.4-.1.5,0,.1-.1.2,0,.3a1.7,1.7,0,0,1,.1.7c0,.3-.1.6.2.8a2.22,2.22,0,0,1,.1,1.6c-.1.2-.1.4-.2.6v1.1a2.507,2.507,0,0,1,.4.7,4.671,4.671,0,0,1,.5,1,1.7,1.7,0,0,1,.1.7,1.421,1.421,0,0,0,.2.6c.1.1.2.2.1.3a.247.247,0,0,0,.1.4,1.421,1.421,0,0,1,.2.6,1.5,1.5,0,0,0,.4,1.1,3.043,3.043,0,0,0,.8.8,1,1,0,0,1,.4.5,3,3,0,0,0,.4,1,1.087,1.087,0,0,1,.1.5,14.158,14.158,0,0,0,.4,2,.758.758,0,0,0,.2.4c.1.2.3.3.5.5a5.347,5.347,0,0,1,1.3,1.3,4.589,4.589,0,0,1,1,2.5,1.4,1.4,0,0,0,.3.9,3.592,3.592,0,0,1,.7,1c.1.1.2.2.3.2a1.905,1.905,0,0,1,1,.5,1.589,1.589,0,0,1,.8,1l.4.9a4.248,4.248,0,0,0,1,1.7c.1.1.1.1.1.2a1.205,1.205,0,0,0,.5.5l.6.3c.2.1.4.1.5.2a1.442,1.442,0,0,1,1.1.7,7.74,7.74,0,0,1,.7,1.6,2.94,2.94,0,0,0,1,1.2,1.575,1.575,0,0,1,.7.7c.1.2.3.5.4.7a.1.1,0,0,1,.1.1,2.779,2.779,0,0,1,1.2,1.2,5.547,5.547,0,0,0,.6.8c.1.1.2.1.2.2a4.951,4.951,0,0,0,1.3.4,12.861,12.861,0,0,1,1.9.4c.1.1.3.1.4.2s.2.1.4.1a3,3,0,0,1,1,.4.6.6,0,0,0,.4.1,2.2,2.2,0,0,1,.8.1h.2a1.387,1.387,0,0,1,.9,0c.4.1.7-.1,1-.1h.2a12.09,12.09,0,0,1,1.8.5.367.367,0,0,1,.3-.1,1.387,1.387,0,0,1,.9,0,2.407,2.407,0,0,1,.8.6,1.513,1.513,0,0,0,1.4.7.749.749,0,0,1,.5.1c.1,0,.1.1.2,0a3.083,3.083,0,0,1,1-.1,2.232,2.232,0,0,1,1.4.3,1.421,1.421,0,0,0,.6.2,1.235,1.235,0,0,1,.8.4,3.227,3.227,0,0,0,2.1.8,5.067,5.067,0,0,0,1.3-.2,4.013,4.013,0,0,1,1.5-.3,6.456,6.456,0,0,0,1.9-.4,6.89,6.89,0,0,1,.8-.3,1.087,1.087,0,0,1,.5-.1,4.484,4.484,0,0,0,1.1.1,2.1,2.1,0,0,0,1.1-.4.1.1,0,0,0,.1-.1h0a11.732,11.732,0,0,0,1.1-.5c.1-.1.2-.1.4-.1a.6.6,0,0,0,.4.1,1.7,1.7,0,0,1,.7-.1,1.7,1.7,0,0,0,.7-.1,9.7,9.7,0,0,1,1.7-.1,2.879,2.879,0,0,0,1.3.1.756.756,0,0,1,.4.1c.3.2.7.4.8.8a10.092,10.092,0,0,1,.7,1.5.215.215,0,0,0,.2.2.52.52,0,0,1,.2.4.988.988,0,0,0,.7.7,1.421,1.421,0,0,0,.6.2,3.091,3.091,0,0,0,.8.2,1.689,1.689,0,0,1,1,.3,1.962,1.962,0,0,1,.9.9c.2.3.5.7.7,1a1.9,1.9,0,0,0,1.5.8,1.422,1.422,0,0,1,.6.2,2.336,2.336,0,0,1,.7.7,3.592,3.592,0,0,0,.7,1,2.64,2.64,0,0,0,1.9.7c.4-.1.8,0,1.2-.1a11.018,11.018,0,0,1,1.8-.2h.3Z"/>
    <path id="パス_3_1_" d="M25.4,48.3a1.779,1.779,0,0,0-.7-.8.375.375,0,0,0-.6,0l-.1.1a2.7,2.7,0,0,0-.7.8,2.651,2.651,0,0,1-.5.6.6.6,0,0,1-.4.1,2.181,2.181,0,0,1-.5-.4.934.934,0,0,0-1.3,0l-.1.1c-.1.1-.1.1-.1.2-.2.3-.3.7-.5,1a7.494,7.494,0,0,0-.5,1.6,1.884,1.884,0,0,0-.2.8,3.553,3.553,0,0,1-.2,1,5.019,5.019,0,0,0-.2,1.2,4.191,4.191,0,0,1-.4,1.5,1.854,1.854,0,0,0-.2.7c0,.1-.1.3-.1.4a2.663,2.663,0,0,0-.3,1.2.9.9,0,0,0-.1.5,4.923,4.923,0,0,1-.6,1.7,4.951,4.951,0,0,0-.4,1.3.349.349,0,0,1-.1.2c-.2.4-.4.9-.6,1.3a.367.367,0,0,0-.1.3,10.092,10.092,0,0,1-.7,1.5,1.421,1.421,0,0,0-.2.6,1.445,1.445,0,0,1-.2.7,6.9,6.9,0,0,0-.4,1,.3.3,0,0,0,0,.4A3.838,3.838,0,0,0,15.5,69c.1.1.2.1.2.2a1.135,1.135,0,0,1,.3.8,7.412,7.412,0,0,1-.1,2.1c0,.1-.1.3-.1.4a1.907,1.907,0,0,1-.2,1.3V74a5.451,5.451,0,0,0-.1,2.2,1.7,1.7,0,0,1,0,1,18.243,18.243,0,0,0-.7,2.5c-.1.2-.1.4-.2.6a.663.663,0,0,0,.2.7l.1.1a12.491,12.491,0,0,0,1.2.9,2.476,2.476,0,0,1,1.1,2.1c0,.3.1.6.1.9s-.2.6-.1.9V86a.9.9,0,0,1-.1.5c0,.1-.1.3-.1.4a.765.765,0,0,0,.2.9,1,1,0,0,1,.4.5,3,3,0,0,1,.4,1,3.194,3.194,0,0,1,.3,1.4c0,.1.1.3.1.4a4.281,4.281,0,0,0,1.5,1.8c.3.2.8.2,1.1.5a.349.349,0,0,0,.2.1.713.713,0,0,1,.6.3,12.7,12.7,0,0,0,1.2,1,1.555,1.555,0,0,1,.6.8c.3.5.5,1.1,1.2,1.3a.1.1,0,0,1,.1.1h0a6.42,6.42,0,0,0,1.3,1,14.2,14.2,0,0,1,1.2,1.3.781.781,0,0,0,.4.4,8.65,8.65,0,0,1,1,.7,1.779,1.779,0,0,1,.7.8c.1.2.2.5.3.7a1.271,1.271,0,0,0,.8.8,6.889,6.889,0,0,1,.8.3.446.446,0,0,0,.5,0,1.763,1.763,0,0,0,1.5-.8,2.361,2.361,0,0,1,.9-.6.349.349,0,0,1,.2-.1c.5.1,1-.2,1.5,0,.1.1.2,0,.4,0,.4-.1.9-.1,1.3-.2a2.666,2.666,0,0,0,1.4-.7,4.741,4.741,0,0,0,1-1,1.794,1.794,0,0,1,.7-.5,6.468,6.468,0,0,1,1.3-.4,3.552,3.552,0,0,0,.9-.4,4.263,4.263,0,0,0,1.1-1.2,1.38,1.38,0,0,1,.3-.4,8.794,8.794,0,0,0,.6-1,.52.52,0,0,0,.2-.4c0-.2.2-.2.2-.4a2.177,2.177,0,0,1,.5-.8,2.4,2.4,0,0,0,.7-1.2.9.9,0,0,0,.1-.5,7.719,7.719,0,0,1,.2-1.5.349.349,0,0,1,.1-.2,1.135,1.135,0,0,0,.3-.8c0-.1.1-.3.1-.4a5.067,5.067,0,0,0,.2-1.3.749.749,0,0,0-.1-.5c-.1-.1-.1-.4-.1-.5,0-.5.1-1,.1-1.5a4.3,4.3,0,0,0,0-1.6V84a.446.446,0,0,0,0-.5,2.959,2.959,0,0,1-.2-1,2.353,2.353,0,0,1,.2-.8c0-.1.1-.1.1-.2s.1-.1,0-.2c-.1-.6-.1-1.2-.2-1.8,0-.1,0-.1-.1-.2a3.956,3.956,0,0,0-1-1.5,2.223,2.223,0,0,1-.8-1.3c0-.1-.1-.3-.1-.4-.1-.5-.1-1-.2-1.5l-.3-1.2a4.4,4.4,0,0,1-.2-1c0-.1-.1-.3-.1-.4a8.8,8.8,0,0,0-.5-1.5c-.1-.2-.1-.3-.2-.5a4,4,0,0,0-1.5-1.9l-.5-.4a3.7,3.7,0,0,0-1.8-.8c-.2-.1-.5-.2-.7-.3a.55.55,0,0,1-.3-.5,2.92,2.92,0,0,0-.2-.9,2.161,2.161,0,0,1-.1-1.1v-.3a12.751,12.751,0,0,1-.1-1.9,3.553,3.553,0,0,0-.2-1c-.1-.2-.1-.4-.2-.5a1.421,1.421,0,0,0-.2-.6c-.2-.3-.4-.5-.6-.8a1.623,1.623,0,0,1-.5-.9,10.663,10.663,0,0,0-.7-1.9l-.2-.4a16.965,16.965,0,0,0-1-1.4c-.1-.1-.2-.3-.3-.4l-.9-.9a1.286,1.286,0,0,1-.4-1.2c0-.3-.1-.6-.1-.8a.472.472,0,0,0-.5-.5,1.073,1.073,0,0,0-1.1.1,10.907,10.907,0,0,1-1.1.6c-.3.1-.5.4-.8.5-.1.2-.2.5-.3.7l-.2.4a.92.92,0,0,0,.1,1,.52.52,0,0,1,.2.4c.1.1,0,.3-.1.4h-.1a4.145,4.145,0,0,1-1.6-.2.51.51,0,0,1-.4-.5.749.749,0,0,1,.1-.5,2.769,2.769,0,0,0,.1-.9,2.92,2.92,0,0,1,.2-.9c.2-.4.3-.8.5-1.2a.446.446,0,0,0,0-.5c-.1-.2-.3-.4-.4-.6a.365.365,0,0,0-.5-.2,2.092,2.092,0,0,0-.6.4,1.756,1.756,0,0,1-.4.5c-.1.1-.1.2-.2.3a.3.3,0,0,1-.4,0l-.1-.1a1.376,1.376,0,0,1-.1-1.1C25.5,48.6,25.5,48.4,25.4,48.3Z"/>
    <path id="パス_4_1_" d="M54.3,15.6a4.348,4.348,0,0,0,.4-.7.908.908,0,0,1,.3-.7c.1-.2.2-.3.2-.5a4.875,4.875,0,0,0,.4-1.1.764.764,0,0,1,.2-.5,3.45,3.45,0,0,1,.8-.9,3.915,3.915,0,0,0,.8-1c.2-.3.7-.5,1-.8a1.656,1.656,0,0,1,1.2-.5,14.719,14.719,0,0,1,2.1,0,1.2,1.2,0,0,1,1,.7,5.638,5.638,0,0,1,.4,1.2,1.421,1.421,0,0,0,.2.6.663.663,0,0,0,.7.2h.1a1.536,1.536,0,0,0,.5-1.9c-.1-.3-.2-.5-.3-.8a9.25,9.25,0,0,1-.5-1,2.181,2.181,0,0,0-.4-.5c-.1-.1-.3-.2-.4-.3a.52.52,0,0,0-.4-.2,5.067,5.067,0,0,0-1.3-.2c-.2-.1-.4.1-.7.1a4.89,4.89,0,0,0-2.3.8.52.52,0,0,1-.4.2,2.361,2.361,0,0,0-.9.8l-.2.2c-.2.1-.3.3-.4.4a.215.215,0,0,1-.2.2,3.915,3.915,0,0,0-.8,1,7.677,7.677,0,0,0-1,1.8,6.311,6.311,0,0,0-.8,2.3,1.389,1.389,0,0,0,.2,1.1C53.8,15.8,54.1,15.8,54.3,15.6Z"/>
    <path id="パス_5_1_" d="M91.7,112.2c.5-.3,1.1-.6,1.6-.9a.349.349,0,0,1,.2-.1,7.412,7.412,0,0,1,2.1.1.31.31,0,0,1,.2-.1c.4-.1.6-.4.9-.5a2.7,2.7,0,0,0,.8-.7,2.336,2.336,0,0,1,.7-.7,5.241,5.241,0,0,0,1.1-1,1,1,0,0,1,.5-.4,2.092,2.092,0,0,0,.6-.4,1.845,1.845,0,0,1,1.2-.5,1.952,1.952,0,0,0,.7-.1.664.664,0,0,0,.5-.4.6.6,0,0,0,.1-.4c.1-.2.1-.4.2-.6a6.889,6.889,0,0,1,.3-.8l.4-1.5a2.55,2.55,0,0,1,.8-1.2,2.66,2.66,0,0,0,1-1.1,2.651,2.651,0,0,1,.5-.6,3.591,3.591,0,0,1,1-.7,1.419,1.419,0,0,0,.8-.9c.1-.1.1-.2.2-.3a.481.481,0,0,0-.2-.6h0c-.1-.1-.2-.1-.4-.1a2.2,2.2,0,0,1-.8-.1,1.4,1.4,0,0,0-.9.3c-.2.1-.3.3-.5.4a1.489,1.489,0,0,1-.9.4,4.368,4.368,0,0,0-2.8,1.3,4.708,4.708,0,0,1-1.5,1.3c-.8.5-.9.4-1.5.2a.6.6,0,0,0-.4-.1,5.637,5.637,0,0,0-1.2.4,4.328,4.328,0,0,1-1.2.5.349.349,0,0,0-.2.1.821.821,0,0,0-.5.5,1.128,1.128,0,0,0-.1.8.454.454,0,0,1,0,.5,4.348,4.348,0,0,1-.4.7.52.52,0,0,1-.4.2,7.494,7.494,0,0,1-1.6.5.749.749,0,0,1-.5-.1,1.235,1.235,0,0,1-.4-.8V104c.2-.3.4-.6.7-1a2.506,2.506,0,0,1,.4-.7c.1-.2.4-.4.6-.6a2.177,2.177,0,0,1,.8-.5,5.023,5.023,0,0,0,1.3-.5.367.367,0,0,1,.3-.1,5.637,5.637,0,0,0,1.2-.4,5.638,5.638,0,0,1,1.2-.4,1.087,1.087,0,0,1,.5-.1,1.234,1.234,0,0,0,.8-.4c.5-.4.9-.7,1.4-1.1.3-.2.6-.5.9-.7a6.944,6.944,0,0,1,1.3-.5,3.1,3.1,0,0,0,1.3-.6,5.559,5.559,0,0,1,1.7-.9,1.087,1.087,0,0,1,.5-.1.952.952,0,0,0,.7-.2l.7-.4a10.548,10.548,0,0,1,1.9-.5,2.2,2.2,0,0,1,.8-.1,1.7,1.7,0,0,0,1,0,4.951,4.951,0,0,0,1.3-.4.661.661,0,0,1,.6-.1,11.019,11.019,0,0,0,1.8-.2c.2-.1.5-.1.7-.2.6-.2,1.2-.2,1.8-.4.1-.1.3,0,.5-.1a.6.6,0,0,0,.4-.1,2.537,2.537,0,0,1,1.2-.2,3.4,3.4,0,0,0,1-.1,2.485,2.485,0,0,1,.8-.1.749.749,0,0,0,.5-.1,4.129,4.129,0,0,0,1.1-.7,2.1,2.1,0,0,1,1.1-.4,2.354,2.354,0,0,0,.8-.2,1.445,1.445,0,0,1,.7-.2c.1,0,.2-.1.4-.1a2.92,2.92,0,0,1,.9-.2,5.637,5.637,0,0,0,1.2-.4,2.193,2.193,0,0,1,1.6-.2.3.3,0,0,0,.4,0c.2-.1.3-.1.5-.2l1.5-.6c.2-.1.5-.1.7-.2a7.494,7.494,0,0,0,1.6-.5,1.445,1.445,0,0,1,.7-.2,5.782,5.782,0,0,0,1.4-.5,11.939,11.939,0,0,1,1.6-.8,1.612,1.612,0,0,0,.7-.4,1.344,1.344,0,0,0,.7-.6c.1-.1.1-.2.2-.3a5.241,5.241,0,0,1,1.1-1,2.182,2.182,0,0,0,.5-.4,3.924,3.924,0,0,1,1.4-.8,2.177,2.177,0,0,0,.8-.5,5.716,5.716,0,0,0,.8-.7,1.069,1.069,0,0,1,1.1-.5c.1,0,.2,0,.2-.1a6.014,6.014,0,0,0,1.3-.9,5.845,5.845,0,0,1,1.4-1.3c.1-.1.1-.1.2-.1a3.166,3.166,0,0,0,.8-1.2,3.591,3.591,0,0,1,.7-1,4.62,4.62,0,0,0,.7-.7c.2-.2.4-.5.6-.7.1-.1.1-.1.2-.1.1-.1.1-.2.2-.2a10.092,10.092,0,0,0,.7-1.5,2.01,2.01,0,0,1,.4-.8,10.092,10.092,0,0,0,.7-1.5,3.7,3.7,0,0,1,.5-1.1.764.764,0,0,0,.2-.5,2.745,2.745,0,0,1,.2-1.3,5.019,5.019,0,0,0,.2-1.2c0-.7.2-1.4.2-2.1,0-.2.1-.3.1-.5a4.973,4.973,0,0,0,.1-2.1,7.367,7.367,0,0,0-.4-1.4,5.019,5.019,0,0,1-.2-1.2,1.268,1.268,0,0,1,.1-.6c0-.2-.1-.5-.1-.7v-.1a2.768,2.768,0,0,0-.1-.9,1.854,1.854,0,0,1-.2-.7,1.087,1.087,0,0,1-.1-.5,7.173,7.173,0,0,0-.6-2.9,1.839,1.839,0,0,1-.2-1.6v-.3c0-.1-.1-.3-.1-.4a5.134,5.134,0,0,0-1-2.4,1.3,1.3,0,0,1-.5-1.3.367.367,0,0,0-.1-.3,2.178,2.178,0,0,0-.5-.8,8.341,8.341,0,0,1-.8-1.2,8.64,8.64,0,0,0-.7-2.1,1.589,1.589,0,0,0-.8-1,1.818,1.818,0,0,1-1-1.1,1,1,0,0,0-.4-.5,11.985,11.985,0,0,0-1.1-1.2,2.178,2.178,0,0,1-.7-.9,1.024,1.024,0,0,0-.5-.6c-.2-.1-.3-.2-.5-.3a9.293,9.293,0,0,1-1-.5,2.168,2.168,0,0,1-1.1-1,3.447,3.447,0,0,0-1.2-1.2.1.1,0,0,1-.1-.1,3.745,3.745,0,0,1-1.3-1.2,2.982,2.982,0,0,0-1.7-1.2c-.4-.1-.8-.3-1.1-.4a.52.52,0,0,0-.4-.2l-.4-.5a2.182,2.182,0,0,0-.4-.5,2.652,2.652,0,0,1-.6-.5,3.746,3.746,0,0,0-1.2-.7,5.3,5.3,0,0,1-1.5-.8c-.1-.1-.2-.1-.2-.2l-1.5-1.2c-.1-.1-.1-.2-.2-.2a1.6,1.6,0,0,0-.9-.7.92.92,0,0,0-1-.1c-.1.1-.2,0-.3.1a9.737,9.737,0,0,1-2.4-.2h-.1a13.356,13.356,0,0,1-1.8-.7.31.31,0,0,0-.2-.1,2.186,2.186,0,0,1-.5-.3l-.2-.2a1.845,1.845,0,0,0-1.6-.5c-.2,0-.3.2-.3.4a.756.756,0,0,0,.1.4,2.589,2.589,0,0,0,.7,1.1.52.52,0,0,1,.2.4,2.189,2.189,0,0,0,1,.9.781.781,0,0,1,.4.4c.1.1.1.3.2.4a2.01,2.01,0,0,0,.4.8,4.348,4.348,0,0,1,.4.7,6.117,6.117,0,0,0,.5,1.2,1.612,1.612,0,0,1,.4.7c.6,1.1.6.6.5,1.9a3.4,3.4,0,0,0,.1,1,1.7,1.7,0,0,1,.1.7,4.331,4.331,0,0,0,.1.5,1.854,1.854,0,0,0,.2.7,1.7,1.7,0,0,1,0,1,5.023,5.023,0,0,0-.5,1.3.367.367,0,0,0-.1.3,10.869,10.869,0,0,0,.1,1.8,11.938,11.938,0,0,1-.8,1.6.367.367,0,0,0-.1.3,1.612,1.612,0,0,1-.4.7,3.552,3.552,0,0,0-.8,1.9.367.367,0,0,1-.1.3l-.5.9a10.417,10.417,0,0,0-1,1.8,1.057,1.057,0,0,1-.6.7,1.205,1.205,0,0,0-.5.5c-.1.1-.2.2-.3.2a1.794,1.794,0,0,0-.7.5,1.47,1.47,0,0,1-.6.5c-.5.2-1.1.5-1.7.7a2.506,2.506,0,0,0-.7.4,8.265,8.265,0,0,1-1.3.7c-.5.1-1.1.4-1.6.5-.4.2-.7.3-1.1.5a.52.52,0,0,1-.4.2,2.851,2.851,0,0,1-1.6-.2,2.2,2.2,0,0,0-1.4-.2,3.922,3.922,0,0,1-1.8-.4,7.945,7.945,0,0,0-2.2-.6c-.4-.1-.7-.2-1-.3a1.38,1.38,0,0,1-.4-.3,3.126,3.126,0,0,0-1.1-.9,3.25,3.25,0,0,1-1.3-1.3c-.1-.1-.1-.3-.2-.4a1.794,1.794,0,0,1-.5-.7,1.794,1.794,0,0,0-.5-.7,2.539,2.539,0,0,1-.8-1c-.2-.4-.4-.9-.6-1.4a1.794,1.794,0,0,0-.5-.7,1.991,1.991,0,0,1-.8-1.2,13.553,13.553,0,0,1-.2-2,1.135,1.135,0,0,0-.3-.8.52.52,0,0,1-.2-.4c-.2-.4-.4-.5-.8-.4a1.854,1.854,0,0,0-.7.2c-.1,0-.2.1-.4.1-.4,0-.9-.1-1.3-.1a3.083,3.083,0,0,0-1-.1c-.2,0-.2.1-.3.3V41a1.4,1.4,0,0,1-.3.9c-.4.5-.8,1.1-1.2,1.5a2.092,2.092,0,0,0-.4.6,4.951,4.951,0,0,1-.4,1.3,4.869,4.869,0,0,0-.1,1.2,1.95,1.95,0,0,1-.1,1.3c-.1.2-.1.4-.3.6a1.445,1.445,0,0,0-.2.7,5.023,5.023,0,0,1-.5,1.3.367.367,0,0,0-.1.3c0,.2-.1.3-.2.5a3.128,3.128,0,0,0-.5,1c-.1.2-.2.3-.3.5-.3.3-.5.6-.8.9a17.879,17.879,0,0,0-1.4,1.3,1.855,1.855,0,0,1-1.2.7.758.758,0,0,0-.4.2,7.006,7.006,0,0,0-1,.8,1.656,1.656,0,0,1-1.2.5,1.159,1.159,0,0,0-1,.4,1.234,1.234,0,0,1-.8.4,6.753,6.753,0,0,1-1.4.2,1.929,1.929,0,0,0-1,.3,2.247,2.247,0,0,1-1.8.2.6.6,0,0,0-.4-.1,1.1,1.1,0,0,0-.8,0,3.329,3.329,0,0,1-1.4.1,2.947,2.947,0,0,1-1.3-.5.367.367,0,0,0-.3-.1c-.3,0-.6-.1-.9-.1a1.95,1.95,0,0,1-.8-.1,4.671,4.671,0,0,1-1-.5,7.246,7.246,0,0,0-2.5-1.2,2.577,2.577,0,0,1-1.3-.8c-.2-.2-.4-.5-.6-.7a2.286,2.286,0,0,0-1-.7,2.1,2.1,0,0,1-1.3-1.3,4.628,4.628,0,0,0-1.3-1.8.67.67,0,0,1-.3-.8,2.768,2.768,0,0,0-.3-1.3.517.517,0,0,0-.7-.3h0a16.179,16.179,0,0,0-1.8,1,3.552,3.552,0,0,1-.9.4,2.092,2.092,0,0,0-.6.4,12.132,12.132,0,0,1-1.4,1,3.494,3.494,0,0,1-1.3.5,4.193,4.193,0,0,0-1.6.4.31.31,0,0,1-.2.1,1.612,1.612,0,0,0-.7.4,5.547,5.547,0,0,0-.8.6c-.2.3-.7.4-.8.8-.1.1-.2.1-.2.2a6.42,6.42,0,0,0-1.3,1,.52.52,0,0,1-.4.2,12.81,12.81,0,0,0-2,1.1,5.813,5.813,0,0,1-2.5.9c-.1,0-.1.2-.1.2l.4.5a2.994,2.994,0,0,1,.4.8c-.1.5.2.9.1,1.4-.1.1.1.3.1.4a16.179,16.179,0,0,1,1,1.8,3.594,3.594,0,0,1,.7,1.8c0,.1,0,.2.1.2.1.5.3.9.4,1.3a4.011,4.011,0,0,0,.9,1.7l.6.9a4.177,4.177,0,0,0,1.1,1.5,1,1,0,0,1,.4.5,4.141,4.141,0,0,1,.9,2.3,1.854,1.854,0,0,0,.2.7,5.9,5.9,0,0,0,.4.8,4.179,4.179,0,0,1,.4,1c-.1-.3-.1-.2-.1-.1v.2a1.388,1.388,0,0,0,0,.9,2.438,2.438,0,0,0,0,1.2,2.01,2.01,0,0,0,.4.8c.2.2.3.5.5.7a1.421,1.421,0,0,1,.2.6c0,.2-.1.5-.1.7a7.719,7.719,0,0,0-.2,1.5,2.016,2.016,0,0,0,.3,1.1.758.758,0,0,1,.2.4,2.292,2.292,0,0,1,.2,1.8c0,.1-.1.3-.1.4a8.752,8.752,0,0,0,.2,1.6.764.764,0,0,0,.2.5,1.7,1.7,0,0,1,.2,1.4,10.622,10.622,0,0,0-.4,1.9,2.2,2.2,0,0,0-.1.8c.1.1-.1.3-.1.4-.1.1-.1.3-.2.4a10.243,10.243,0,0,0-1,2.1c-.1.4-.2.7-.3,1l-.3,1.2a.6.6,0,0,0,.1.4c.3.4.5.9,1.1,1.1.1.1.3.1.4.2a.367.367,0,0,0,.3.1,18.456,18.456,0,0,1,2.3.4.446.446,0,0,0,.5,0,13.4,13.4,0,0,1,2-.1,5.067,5.067,0,0,1,1.3.2c.3.1.7.1,1,.2a3.788,3.788,0,0,0,1.5,0,2.054,2.054,0,0,1,1.1,0,21.718,21.718,0,0,1,2.4.7,10.081,10.081,0,0,0,2.5.5,1.884,1.884,0,0,1,.8.2c.4.2.8.3,1.2.5a4.348,4.348,0,0,0,.7.4,2.2,2.2,0,0,0,.8.1,5.853,5.853,0,0,0,1.3.2,7.491,7.491,0,0,1,1.6.4c.1,0,.1,0,.1.1.2.2.5.2.8.4.1,0,.2.1.3.2l1.5.9a2.281,2.281,0,0,0,1.2.6,4.355,4.355,0,0,1,1.6,1,7.006,7.006,0,0,0,1,.8,11.319,11.319,0,0,0,1.3,1,2.189,2.189,0,0,1,1,.9,1.612,1.612,0,0,1,.4.7,2.181,2.181,0,0,0,.4.5,2.7,2.7,0,0,1,.7.8.52.52,0,0,0,.2.4,3.1,3.1,0,0,1,.6,1.3c.1.2.1.4.2.6a2.01,2.01,0,0,0,.4.8,3.915,3.915,0,0,0,.8,1,2.186,2.186,0,0,1,.3.5.367.367,0,0,0,.1.3c.1.2.4.4.6.2a.1.1,0,0,0,.1-.1,9.428,9.428,0,0,1,1-1A15.717,15.717,0,0,0,91.7,112.2Z" fill="#fff"/>
    <path id="パス_6_1_" d="M136.8,177.5a1.208,1.208,0,0,0-.7-.7l-.6-.3a1.387,1.387,0,0,1-.7-.8,4.477,4.477,0,0,1-.4-2,1.7,1.7,0,0,0-.1-.7,7.844,7.844,0,0,1-.2-1.4,3.606,3.606,0,0,0-.6-2,4.875,4.875,0,0,1-.3-.7,2.953,2.953,0,0,1-.2-1.3,4.1,4.1,0,0,0,.1-1.1,5.283,5.283,0,0,1-.1-1.3v-.9a2.92,2.92,0,0,0-.2-.9,1.486,1.486,0,0,1-.2-.9c0-.1-.1-.3-.1-.4s-.1-.2,0-.3c.1-.6.1-1.2.2-1.8a5.066,5.066,0,0,0,.2-1.3,6.752,6.752,0,0,0,.2-1.4v-.2a1.7,1.7,0,0,1-.1-.7v-1.6a3.922,3.922,0,0,1,.4-1.8,1.421,1.421,0,0,0,.2-.6,2.016,2.016,0,0,1,.3-1.1c.1-.2.1-.4.2-.5a2.768,2.768,0,0,0,.3-1.3,1.136,1.136,0,0,1,.3-.8.878.878,0,0,1-.1-.7.637.637,0,0,0,0-.6.187.187,0,0,1,0-.3,1.268,1.268,0,0,0,.1-.6,2.354,2.354,0,0,1,.2-.8,6.89,6.89,0,0,0,.3-.8c.1-.2.1-.5.2-.7a17.677,17.677,0,0,0,.8-3.1,1.489,1.489,0,0,1,.4-.9.758.758,0,0,0,.2-.4,2.091,2.091,0,0,1,.7-1.3,3.126,3.126,0,0,0,.9-1.1c.1-.1.1-.2.2-.2a5.548,5.548,0,0,0,.6-.8c.2-.3.4-.7.6-1a7.143,7.143,0,0,0,.8-1.5.822.822,0,0,1,.4-.6.764.764,0,0,0,.2-.5.764.764,0,0,1,.2-.5,3.043,3.043,0,0,1,.8-.8.52.52,0,0,1,.4-.2,3.592,3.592,0,0,1,1-.7c.1-.1.3-.1.4-.2a2.456,2.456,0,0,1,1.5-.5,3.255,3.255,0,0,0,1.4-.4c.4-.2.7-.3,1.1-.5a1.7,1.7,0,0,0,1.3-1,3.915,3.915,0,0,1,.8-1,1.284,1.284,0,0,1,1-.4,3.513,3.513,0,0,0,2-.5c.7-.4.7-.5.6-1.2a.758.758,0,0,0-.2-.4,2.286,2.286,0,0,0-1-.7,9.143,9.143,0,0,1-1.4-.7,1.232,1.232,0,0,0-1-.2h-.5a1.826,1.826,0,0,1-1.3-.8.749.749,0,0,1-.1-.5l.3-1.5a1.735,1.735,0,0,0-.5-1.8c-.2-.3-.4-.5-.6-.8-.1-.1-.1-.3-.2-.4a3.552,3.552,0,0,0-.9-.4,4.424,4.424,0,0,1-1.5-.5c-.4-.1-.7-.2-1.1-.3-.1-.1-.3.1-.4.1a3.552,3.552,0,0,1-.9.4.9.9,0,0,0-.6.6,2.075,2.075,0,0,1-.6,1,4.875,4.875,0,0,0-.3.7.908.908,0,0,1-.3.7.367.367,0,0,0-.1.3,1.854,1.854,0,0,0,.2.7,10.662,10.662,0,0,1,.7,1.9c.1.2.1.5.2.8a.645.645,0,0,0,.6.6,1.268,1.268,0,0,0,.6.1c.1,0,.2.1.3,0l1.5-.3a1.7,1.7,0,0,1,1,0,11.627,11.627,0,0,0,1.8.4c.1,0,.3.1.4.1a.445.445,0,0,1,.2.6.1.1,0,0,1-.1.1,1.209,1.209,0,0,1-1.3.7.755.755,0,0,0-.8.1,5.9,5.9,0,0,0-.8.4c-.2.1-.4.1-.5.2a3.75,3.75,0,0,0-1.1.1c-.1.1-.2,0-.4,0a.3.3,0,0,0-.4,0c-.3.1-.6.1-.9.2a4.191,4.191,0,0,1-1.5.4c-.3,0-.5.1-.8.1a.349.349,0,0,0-.2.1,1.746,1.746,0,0,0-.4,1.2,1.183,1.183,0,0,1-.1,1,2.485,2.485,0,0,0-.1.8,2.1,2.1,0,0,1-.4,1.1c-.2.4-.6.6-.7,1a.1.1,0,0,1-.1.1c-.2.2-.3.4-.5.6a4.741,4.741,0,0,1-1,1,3.96,3.96,0,0,1-1.9.7,1.422,1.422,0,0,0-.6.2c-.3.2-.7.3-1,.5a1.344,1.344,0,0,0-.7.6,7.74,7.74,0,0,0-.7,1.6c-.2.7-.3,1.4-.5,2.1-.1.4-.1.9-.2,1.3a1.689,1.689,0,0,1,.2.5,1.087,1.087,0,0,1,.1.5.778.778,0,0,1-.2.8.758.758,0,0,0-.2.4,4.875,4.875,0,0,1-.3.7,1.854,1.854,0,0,0-.2.7.972.972,0,0,1-.1.9,5.663,5.663,0,0,0-.3,1.8v.4a2.768,2.768,0,0,0-.1.9c0,.1-.1.2-.2.3-.2.4-.3.7-.5,1.1a14.58,14.58,0,0,0-.7,1.9,4.981,4.981,0,0,1-1,1.9,3.408,3.408,0,0,1-.7,2.2.758.758,0,0,0-.2.4,7.459,7.459,0,0,1-.7,1.2,7.458,7.458,0,0,0-.7,1.2,3.508,3.508,0,0,1-.5.8.764.764,0,0,0-.2.5,1.612,1.612,0,0,1-.4.7,9.908,9.908,0,0,0-1.1,1.7,6.527,6.527,0,0,1-1,1.5,5.716,5.716,0,0,0-.7.8,6.034,6.034,0,0,1-.8.8,8.341,8.341,0,0,1-1.2.8,2.01,2.01,0,0,1-.8.4,12.537,12.537,0,0,1-2.5.9c-.1,0-.1.1-.2.1a2.607,2.607,0,0,1-1.1.3.9.9,0,0,0-.5.1,1.95,1.95,0,0,1-1.3-.1.6.6,0,0,0-.4-.1,11.626,11.626,0,0,0-1.8-.4,1.884,1.884,0,0,1-.8-.2,2.186,2.186,0,0,1-.5-.3,2.732,2.732,0,0,1-.8-1.9.908.908,0,0,1,.3-.7,1.485,1.485,0,0,1,1.4-.4,4.253,4.253,0,0,0,1.1.2,3.582,3.582,0,0,1,1.1.4,1.468,1.468,0,0,0,1.3.1,7.772,7.772,0,0,1,1.6-.2,4.331,4.331,0,0,0,.5-.1,4.054,4.054,0,0,0,.9-.5.592.592,0,0,1,.7-.1,1.344,1.344,0,0,0,1.4-.6c.1-.1.1-.2.2-.3a2.092,2.092,0,0,0,.4-.6,5.67,5.67,0,0,1,.8-1.3,3.805,3.805,0,0,0,.9-1.3,2.335,2.335,0,0,1,1-1.2,3.269,3.269,0,0,0,1.1-1.5,5.167,5.167,0,0,0,.8-1.9.1.1,0,0,1,.1-.1,6.891,6.891,0,0,0,.3-.8,4.874,4.874,0,0,1,.3-.7,6.07,6.07,0,0,0,.7-1,6.943,6.943,0,0,0,.5-1.3,2.01,2.01,0,0,1,.4-.8,3.582,3.582,0,0,0,.4-1.1c.1-.2.1-.5.2-.7a6.456,6.456,0,0,0,.4-1.9,2.768,2.768,0,0,1,.3-1.3,8.8,8.8,0,0,0,.5-1.5,1.087,1.087,0,0,0,.1-.5,2.768,2.768,0,0,1,.3-1.3c.1-.2.1-.3.2-.5a13.637,13.637,0,0,1,.4-1.7c0-.1.1-.2.1-.4a7.568,7.568,0,0,1-.1-1.5,1.7,1.7,0,0,0-.1-.7,1.1,1.1,0,0,1,0-.8,7.719,7.719,0,0,0,.2-1.5,1.268,1.268,0,0,1,.1-.6,12.446,12.446,0,0,1,1-2,.365.365,0,0,1,.5-.2c.4,0,.9.1,1.3.1a2.2,2.2,0,0,0,.8.1c.2,0,.3-.1.5-.2.2-.2.4-.3.6-.5a1.777,1.777,0,0,1,1-.4h.5a.755.755,0,0,0,.7-.4c.2-.3.5-.5.5-1,0-.1.1-.3.1-.4a1.1,1.1,0,0,0,0-.8c-.1-.3-.1-.6-.2-.8a3.694,3.694,0,0,0-.7-1.4.52.52,0,0,0-.4-.2,1.689,1.689,0,0,1-1-.3.751.751,0,0,1-.4-.9.1.1,0,0,1,.1-.1,2.168,2.168,0,0,1,1-1.1,1.232,1.232,0,0,1,1-.2c.4.1.8.1,1.2.2a1.087,1.087,0,0,0,.5.1.52.52,0,0,0,.4-.2c.1-.1.2-.1.2-.2a.735.735,0,0,0,.4-.8v-.4a3.887,3.887,0,0,0-.2-1.5c-.1-.2-.1-.4-.2-.5a2.279,2.279,0,0,0-.3-1.1,10.929,10.929,0,0,0-.8-1.5.951.951,0,0,0-1-.4,2.954,2.954,0,0,1-1.3-.2c-.1,0-.1-.1-.2-.1a1.286,1.286,0,0,0-1.2.4,6.469,6.469,0,0,1-.8.9,2.7,2.7,0,0,1-.8.7,1,1,0,0,0-.5.4,1.64,1.64,0,0,1-1.1.7c-.1,0-.3.1-.4.1-.2-.1-.4-.1-.6-.2a1,1,0,0,1-.5-.4c-.1-.1-.2-.4-.1-.5.1-.3.2-.7.3-1a1.949,1.949,0,0,0,.1-.8c.1-.4.2-.8.3-1.3a2.354,2.354,0,0,1,.2-.8,6.971,6.971,0,0,0,.6-1.9.52.52,0,0,1-.2-.4c-.1-.1-.1-.2-.2-.3-.3-.1-.5-.1-.8-.2a4.065,4.065,0,0,1-1.9-.8c-.2-.2-.5-.4-.7-.6a.616.616,0,0,0-.7-.1l-.6.3a1.345,1.345,0,0,1-.8.2,1.952,1.952,0,0,0-.7.1c-.2.1-.4.2-.4.4,0,.1-.1.2-.1.3a1.612,1.612,0,0,1-.6,1.3l-.7.7a2.534,2.534,0,0,0-1,1.8c0,.1-.1.2-.1.4a11.627,11.627,0,0,0,.4,1.8,1.1,1.1,0,0,1,0,.8,1.812,1.812,0,0,1-2.4.9c-.1,0-.1-.1-.2-.1-.6-.2-1.1-.5-1.8-.8a1.386,1.386,0,0,1-1.1-1.1,1.421,1.421,0,0,1-.2-.6l-.4-.5a1.344,1.344,0,0,0-.7-.6,1.087,1.087,0,0,0-.5-.1,2.485,2.485,0,0,1-.8.1.367.367,0,0,0-.3.1,1.834,1.834,0,0,0-.7,1,3.528,3.528,0,0,1-.8,1.3,6.368,6.368,0,0,0-1,1.8.367.367,0,0,0-.1.3,6.6,6.6,0,0,0-.1,1.4,8.33,8.33,0,0,0,.4,1.5c0,.1,0,.1.1.2a1.268,1.268,0,0,1,.1.6,1.612,1.612,0,0,0,.6,1.3l.2.2a1.02,1.02,0,0,0,.8.5,1.855,1.855,0,0,1,1.2.7,1.231,1.231,0,0,1,.5,1,1.158,1.158,0,0,1-.6,1.4,2.506,2.506,0,0,1-.7.4.664.664,0,0,0-.5.4,4.054,4.054,0,0,0-.5.9,1.344,1.344,0,0,1-.6.7,5.5,5.5,0,0,0-.9.7,2.178,2.178,0,0,0-.7.9c-.1.2-.2.5-.3.7a3.359,3.359,0,0,0-.5,1.4,3.582,3.582,0,0,1-.4,1.1,2.652,2.652,0,0,1-.5.6,4,4,0,0,0-1,1.8c-.1.5-.2.9-.3,1.3a.974.974,0,0,1-1,.8,7.568,7.568,0,0,1-1.5-.1,2.279,2.279,0,0,1-1.1-.3,2.837,2.837,0,0,1-.9-1,9.992,9.992,0,0,0-.8-1.4.781.781,0,0,0-.4-.4c-.1-.1-.2-.1-.3-.2a1.794,1.794,0,0,1-.5-.7.819.819,0,0,1,.4-1,2.437,2.437,0,0,1,1.2,0,2.653,2.653,0,0,1,1.8,1.1l.2.2a1.012,1.012,0,0,0,.7.4c.2-.1.3-.3.4-.4.4-.5.8-1.1,1.2-1.6a10.93,10.93,0,0,0,.8-1.5c.1-.3.2-.5.3-.8l1.5-2.4c.1-.1.1-.2.2-.2a2.7,2.7,0,0,1,.8-.7,1.275,1.275,0,0,0,.5-.7,2.01,2.01,0,0,1,.4-.8.749.749,0,0,0,.1-.5,1,1,0,0,0-.4-.5,3.45,3.45,0,0,1-.9-.8c-.1-.1-.2-.3-.4-.4a3.745,3.745,0,0,1-.7-1.2,1.412,1.412,0,0,1-.1-.9.3.3,0,0,0,0-.4,8.33,8.33,0,0,0-.4-1.5,2.775,2.775,0,0,1,0-1.8c.1-.2.1-.3.2-.5s.1-.4.2-.5a7.973,7.973,0,0,0,.8-1.6c0-.2.1-.3.2-.5a3.924,3.924,0,0,0,.8-1.4,2.075,2.075,0,0,1,.6-1c.1-.1.2-.3.3-.4a2.54,2.54,0,0,1,1.3-1.2c.1-.1.2-.1.4-.1h.4a8.519,8.519,0,0,0,2.3-.4c.1,0,.1-.1.1-.2a.1.1,0,0,0-.1-.1,2.994,2.994,0,0,1-.8-.4,1.445,1.445,0,0,0-.7-.2,2.954,2.954,0,0,1-1.3-.2,3.079,3.079,0,0,0-1.3-.3H110a5.7,5.7,0,0,1-1.3.1c-.1,0-.1,0-.2-.1-.4-.1-.8-.3-1.1-.4-.5-.2-.7-.1-1,.3-.1.1-.1.2-.2.3s-.1.3-.2.4c-.4.5-.9.9-1.3,1.4-.3.3-.7.5-1,.8a1.777,1.777,0,0,1-1,.4c-.3-.2-.5.1-.8,0a1.95,1.95,0,0,0-.8.1.454.454,0,0,1-.5,0,1.9,1.9,0,0,1-1.3-.5,3.552,3.552,0,0,0-.9-.4,1.231,1.231,0,0,0-1,.5,5.582,5.582,0,0,1-.5.8c-.1.1-.1.3-.2.4a3.039,3.039,0,0,0-.5.7.781.781,0,0,1-.4.4,1.205,1.205,0,0,0-.5.5,2.7,2.7,0,0,1-.7.8,3.126,3.126,0,0,0-1.1.9.55.55,0,0,1-.5.3,2.959,2.959,0,0,1-1,.2.349.349,0,0,1-.2-.1,1.445,1.445,0,0,0-.7-.2,1.376,1.376,0,0,0-1.1.1c-.2.1-.3.4-.4.5,0,.2.1.3.1.5a1.445,1.445,0,0,0,.2.7.758.758,0,0,1,.2.4c.1.2.1.4.2.6a4.986,4.986,0,0,1-.3,2.4,2.622,2.622,0,0,0-.2,1.5c0,.3-.1.6-.1.9a1.7,1.7,0,0,0-.1.7v1.2c0,.4.1.8.1,1.1a6.522,6.522,0,0,1-.2,2.4,1.884,1.884,0,0,1-.2.8,2.043,2.043,0,0,0,.1,2,11.627,11.627,0,0,1,.4,1.8.6.6,0,0,1-.1.4,7.772,7.772,0,0,0-.2,1.6.367.367,0,0,1-.1.3,2.247,2.247,0,0,0,.2,1.8,2.748,2.748,0,0,1,.2,2,6.753,6.753,0,0,0-.2,1.4c0,.2-.1.3-.1.5a2.917,2.917,0,0,0,.1,1.6A6.579,6.579,0,0,1,90,148a.1.1,0,0,0,.1.1,6.468,6.468,0,0,1,.4,1.3,3.553,3.553,0,0,0,.2,1,4.053,4.053,0,0,0,.5.9.1.1,0,0,0,.1.1l.4.5a4.9,4.9,0,0,1,1,2.6,2.01,2.01,0,0,0,.4,1.3c.3.5.7,1,1,1.5l.3.3c.2.2.3.4.5.5a3.293,3.293,0,0,1,.7,1.3,6.468,6.468,0,0,0,.4,1.3,2.925,2.925,0,0,0,.7,1.2,3.247,3.247,0,0,0,1.8,1,8.447,8.447,0,0,1,1.7.5,1.445,1.445,0,0,0,.7.2.55.55,0,0,1,.5.3c.7.6,1.4,1.1,2.1,1.8a3.915,3.915,0,0,0,1,.8,8.8,8.8,0,0,0,1,.6,3.128,3.128,0,0,1,1,.5,2.73,2.73,0,0,1,1.2.9l.3.3c.3.2.7.5,1,.7a.31.31,0,0,0,.2.1,2.178,2.178,0,0,1,.9.7,5.263,5.263,0,0,0,1.4,1.2,3.915,3.915,0,0,1,1,.8c.1.1.3.2.4.4a6.122,6.122,0,0,1,1.5,1.7c.2.5.7.7,1,1a.6.6,0,0,0,.4.1h.5a4.376,4.376,0,0,1,2.5.8,6.118,6.118,0,0,0,1.2.5c.6.1,1.3.2,1.9.3a3.594,3.594,0,0,1,1.8.7c.1.1.1.1.2.1a4.18,4.18,0,0,1,1,.4,1.645,1.645,0,0,0,1,.2,1.729,1.729,0,0,0,1-.1c.1,0,.1,0,.2.1a8.083,8.083,0,0,0,1.6.1,23.359,23.359,0,0,0,2.6-.4,1.412,1.412,0,0,1,.9.1l1.8.3a.6.6,0,0,0,.4-.1c.2,0,.3-.1.5-.1a2.854,2.854,0,0,1,1.3,0l1.5.3h.3c.4,0,.5-.2.5-.5,0-.1-.1-.3-.1-.4C137,177.9,136.9,177.7,136.8,177.5Z" fill="#fff"/>
    <path id="パス_7_1_" d="M235.1,154.6c.1-.3-.1-.5-.1-.8a2.152,2.152,0,0,1,0-.8.661.661,0,0,0-.1-.6,1.387,1.387,0,0,1,0-.9c0-.2.1-.3.1-.5a4.484,4.484,0,0,1-.1-1.1,4.484,4.484,0,0,1-.1-1.1v-1.2c0-.2,0-.3-.1-.4a1.929,1.929,0,0,1-.3-1,3.456,3.456,0,0,0-1-2.1,1.794,1.794,0,0,1-.5-.7,3.553,3.553,0,0,1-.2-1V142a9.889,9.889,0,0,0-.9-2.4,1,1,0,0,0-.4-.5,2.336,2.336,0,0,1-.7-.7,2.092,2.092,0,0,1-.4-.6c-.1-.2-.4-.5-.4-.8a.349.349,0,0,0-.1-.2l-.5-.7a.664.664,0,0,0-.5-.4c-.1,0-.3-.1-.4-.1a3.814,3.814,0,0,1-1.6-1.5c-.2-.4-.5-.8-.7-1.2-.1-.1-.1-.2-.2-.3a8.277,8.277,0,0,0-1.5-1.1,1.205,1.205,0,0,1-.5-.5,1.205,1.205,0,0,0-.5-.5,2.694,2.694,0,0,0-1.5-.5.749.749,0,0,1-.5-.1,4.351,4.351,0,0,1-1.5-.8.52.52,0,0,0-.4-.2,9.992,9.992,0,0,1-1.4-.8,1.128,1.128,0,0,0-1.1-.3c-.1,0-.1,0-.2-.1a1.087,1.087,0,0,0-.5-.1c-.4-.1-.7-.1-1.1-.2a14.579,14.579,0,0,1-1.9-.7H213l-.6.3a2.7,2.7,0,0,0-.8.7,1.136,1.136,0,0,1-.8.3c-.2,0-.4-.1-.5.1a3.329,3.329,0,0,1-1.4.1H208a.6.6,0,0,0-.4.1,11.4,11.4,0,0,0-1.9,1c-.2.1-.5.2-.7.3a.52.52,0,0,0-.4.2c-.2.3-.6.5-.8.9a2.486,2.486,0,0,1-1.6,1.1,1.445,1.445,0,0,0-1,.7,5.669,5.669,0,0,0-.8,1.3c-.1.1-.1.3-.2.4s-.2.2-.2.3c-.1.4-.4.5-.4.9a3.552,3.552,0,0,1-.4.9,10.929,10.929,0,0,1-.8,1.5,3.494,3.494,0,0,0-.5,1.3,4.331,4.331,0,0,1-.1.5,1.746,1.746,0,0,1-.4,1.2c-.1.1-.1.2-.2.3-.3.7-.7,1.4-1,2.1a2.507,2.507,0,0,1-.4.7,1.929,1.929,0,0,0-.3,1c0,.1-.1.3-.1.4a.6.6,0,0,0-.1.4,1.185,1.185,0,0,1-.1.8,7.715,7.715,0,0,1-.7,2.6l-.3.6a.6.6,0,0,0-.1.4,5.733,5.733,0,0,1-.4,1.4,1.421,1.421,0,0,0-.2.6c0,.3-.1.6-.1.9s-.1.5-.1.8v1.6a6.279,6.279,0,0,1-.3,1.9l-.3,1.2v.2l.3,1.8a6.054,6.054,0,0,1,0,1.9v3a.756.756,0,0,0,.1.4,10.906,10.906,0,0,0,.6,1.1c.1.1.1.1.2.1.2,0,.3-.2.4-.3.2-.5.4-1.1.7-1.7a.9.9,0,0,0,.1-.5,2.92,2.92,0,0,1,.2-.9,9.83,9.83,0,0,1,.5-1.6c0-.1,0-.1.1-.2.1-.3.1-.6.2-.8l.3-.9a3,3,0,0,1,.4-1l.2-.5c.1-.2.1-.5.2-.7a1.854,1.854,0,0,0,.2-.7c-.1-.1,0-.2.1-.2a5.228,5.228,0,0,0,.6-1.6c0-.1.1-.3.1-.4a4.951,4.951,0,0,0,.4-1.3,13.323,13.323,0,0,0,.5-1.9,6.376,6.376,0,0,1,.2-.7.367.367,0,0,0,.1-.3,10.927,10.927,0,0,1,.5-1.7c0-.1.1-.3.1-.4a7.494,7.494,0,0,0,.5-1.6.764.764,0,0,1,.2-.5,2.92,2.92,0,0,0,.2-.9,4.951,4.951,0,0,1,.4-1.3c.1-.3.2-.7.3-1a.31.31,0,0,0,.1-.2,4.191,4.191,0,0,1,.4-1.5,4.418,4.418,0,0,1,.6-1.6.6.6,0,0,0,.1-.4,7.494,7.494,0,0,1,.5-1.6,2.92,2.92,0,0,0,.2-.9,1.422,1.422,0,0,1,.2-.6,1.884,1.884,0,0,0,.2-.8.55.55,0,0,1,.3-.5c.1-.1.2-.1.2,0a.483.483,0,0,1,0,.7c-.1.1-.3.3-.3.4a.755.755,0,0,1,.1.8.367.367,0,0,0-.1.3,2.92,2.92,0,0,1-.2.9,1.445,1.445,0,0,0-.2.7,1.486,1.486,0,0,1-.2.9,3.079,3.079,0,0,0-.3,1.3,3.529,3.529,0,0,1-.3,1.4,2.2,2.2,0,0,0-.2,1.4.749.749,0,0,1-.1.5,2.016,2.016,0,0,0-.3,1.1c0,.2-.1.3-.1.5-.2.8-.4,1.6-.6,2.5a5.638,5.638,0,0,1-.4,1.2c-.1.2-.2.3-.2.5,0,.3-.1.6-.1.8a5.159,5.159,0,0,0-.2,1.1.756.756,0,0,1-.1.4,11.918,11.918,0,0,1-.8,2,.6.6,0,0,1,0,.8,4.875,4.875,0,0,0-.3.7,1.8,1.8,0,0,1-.4.9.349.349,0,0,0-.1.2,8.753,8.753,0,0,1-.2,1.6,1.884,1.884,0,0,1-.2.8,5.637,5.637,0,0,0-.4,1.2,5.638,5.638,0,0,1-.4,1.2,3.313,3.313,0,0,0-.4,1.5,2.537,2.537,0,0,1-.2,1.2.349.349,0,0,1-.1.2,1.929,1.929,0,0,1-.3,1,4.874,4.874,0,0,0-.4,1.1c0,.1-.1.2-.1.4a8.6,8.6,0,0,0-.1,1.6,13.892,13.892,0,0,0,.6,1.9.367.367,0,0,1,.1.3c.1.2.1.5-.1.6a1.5,1.5,0,0,1-1.1.4,2.22,2.22,0,0,1-1.1-.5.446.446,0,0,0-.5,0c0,.1,0,.1.1.2.2.4.5.7.7,1.1a7.458,7.458,0,0,1,.7,1.2.6.6,0,0,1,.1.4,5.638,5.638,0,0,0,.4,1.2,2.163,2.163,0,0,0,1.1,1.2c.1.1.2.1.2.2.2.2.5.4.6.7a7.051,7.051,0,0,1,.7.9,1.012,1.012,0,0,0,.7.4.215.215,0,0,0,.2-.2,1.7,1.7,0,0,0,.1-.7,8.33,8.33,0,0,0,.4-1.5c0-.2.1-.3.1-.5a3.079,3.079,0,0,0,.3-1.3.756.756,0,0,1,.1-.4,3.6,3.6,0,0,0,.2-1.1.367.367,0,0,1,.1-.3,1.232,1.232,0,0,0,.2-1,1.884,1.884,0,0,1,.2-.8c.1-.4.2-.8.3-1.3.1-.4.3-.8.4-1.2a3.6,3.6,0,0,1,.2-1.1,2.353,2.353,0,0,0,.2-.8.756.756,0,0,1,.1-.4,9.83,9.83,0,0,1,.5-1.6c0-.1.1-.2.1-.4a.6.6,0,0,1,.1-.4,20.937,20.937,0,0,0,.5-2.1,1.854,1.854,0,0,0,.2-.7l.5-2a5.159,5.159,0,0,0,.2-1.1,1.268,1.268,0,0,1,.1-.6,8.33,8.33,0,0,0,.4-1.5,21.715,21.715,0,0,1,.7-2.4,6.89,6.89,0,0,1,.3-.8c0-.1.1-.2.1-.4a4.191,4.191,0,0,1,.4-1.5,5.637,5.637,0,0,0,.4-1.2,8.332,8.332,0,0,1,.4-1.5,1.087,1.087,0,0,0,.1-.5,2.843,2.843,0,0,1,.4-1.2.764.764,0,0,0,.2-.5,1.689,1.689,0,0,1,.3-1,6.376,6.376,0,0,1,.2-.7c.2-.7.4-1.3.6-2s.4-1.3.6-1.9a11.7,11.7,0,0,0,.5-2,8.448,8.448,0,0,0,.5-1.7,12.092,12.092,0,0,1,.5-1.8c0-.1.1-.2.1-.4a2.768,2.768,0,0,1,.3-1.3,4.136,4.136,0,0,0,.5-1.9,7.492,7.492,0,0,1,.4-1.6c.1-.3.2-.6.3-1a.664.664,0,0,1,.4-.5.367.367,0,0,1,.3-.1c.2,0,.3.2.4.3l.2.5a1.735,1.735,0,0,1-.3,1.4,1.087,1.087,0,0,0-.1.5v.8c-.1.6-.2,1.1-.3,1.7-.1.5-.3.9-.4,1.4a8.33,8.33,0,0,0-.4,1.5,10.273,10.273,0,0,1-.7,2.5,2.353,2.353,0,0,0-.2.8c-.1.3-.1.6-.2.9a19.451,19.451,0,0,1-.8,2.2,1.445,1.445,0,0,0-.2.7c-.1.3-.1.6-.2.9a2.392,2.392,0,0,0-.3,1.5v.2a.367.367,0,0,1-.1.3,1.845,1.845,0,0,0-.5,1.6,4.331,4.331,0,0,1-.1.5,6.376,6.376,0,0,1-.2.7c-.1.4-.2.7-.3,1.1a5.066,5.066,0,0,0-.2,1.3,8.332,8.332,0,0,1-.4,1.5c-.1.3-.2.5-.3.8a3.583,3.583,0,0,1-.4,1.1,1.232,1.232,0,0,0-.2,1,2.954,2.954,0,0,1-.2,1.3.6.6,0,0,0-.1.4c-.1.4-.3.8-.4,1.2a5.638,5.638,0,0,1-.4,1.2,2.958,2.958,0,0,0-.2,1,.367.367,0,0,1-.1.3,15.986,15.986,0,0,0-.5,2.1c-.1.7-.4,1.4-.5,2.1a2.958,2.958,0,0,0-.2,1,5.067,5.067,0,0,1-.2,1.3,12.092,12.092,0,0,1-.5,1.8,8.469,8.469,0,0,0-.4,1.7c0,.5-.2,1-.2,1.6a.9.9,0,0,1-.1.5,8.33,8.33,0,0,0-.4,1.5c0,.1,0,.1-.1.1a7.413,7.413,0,0,0-.1,2.1c0,.4.2.5.7.5.1,0,.1-.1.1,0a.43.43,0,0,1,.4.4v.1a2.016,2.016,0,0,1-.3,1.1,2.765,2.765,0,0,1-1.1,1.3c-.1.1-.2.1-.3.2a.247.247,0,0,0,.1.4,2.994,2.994,0,0,1,.8.4c.1.1.2.1.3.2a2.01,2.01,0,0,1,.8.4c.4.2.7.3,1.1.5.3.1.7.2,1,.3.2.1.4.1.6.2s.4-.1.5-.2a.52.52,0,0,0,.2-.4,2.092,2.092,0,0,1,.4-.6,5.576,5.576,0,0,0,.7-1.6,4.418,4.418,0,0,1,.6-1.6c.1-.2.1-.4.2-.5a3.583,3.583,0,0,1,.4-1.1,4.939,4.939,0,0,0,.5-1.6.756.756,0,0,1,.1-.4,15.986,15.986,0,0,0,.5-2.1,2.2,2.2,0,0,0,.1-.8c.1-.6.3-1.2.4-1.8.1-.5.3-1,.4-1.5s.3-1.1.4-1.6c.2-.6.3-1.2.5-1.8.1-.1.1-.2.1-.4l.2-1.1c0-.1.1-.3.1-.4.3-.6.2-1.3.5-1.8v-.1a8.332,8.332,0,0,1,.4-1.5c0-.1.1-.3.1-.4a1.8,1.8,0,0,1,.2-1,2.607,2.607,0,0,0,.3-1.1,1.854,1.854,0,0,1,.2-.7l.3-.9c.1-.4.2-.7.3-1.1,0-.1.1-.2.1-.4a11.628,11.628,0,0,1,.4-1.8c0-.1.1-.3.1-.4a9.364,9.364,0,0,1,.4-1.6.349.349,0,0,1,.1-.2,3.553,3.553,0,0,1,.2-1c.1-.4.1-.9.2-1.3a1.949,1.949,0,0,0,.1-.8,8.753,8.753,0,0,1,.2-1.6,6.279,6.279,0,0,0,.3-1.9c0-.1.1-.3.1-.4s.1-.3.1-.4c0-.3.1-.6.1-.9a5.9,5.9,0,0,0,.2-1.4v-.3a1.645,1.645,0,0,0,.1-1,4.146,4.146,0,0,1,.3-1.6.6.6,0,0,0,.1-.4,1.445,1.445,0,0,1,.2-.7,5.582,5.582,0,0,0,.5-.8,1,1,0,0,1,.5-.4.935.935,0,0,1,.7.5c.2.3.4.5.2.9v.2c.1.3,0,.6.1.9a3.787,3.787,0,0,1,0,1.5c0,.1-.1.2,0,.4a1.183,1.183,0,0,1-.1,1,.9.9,0,0,0-.1.5c.2.3,0,.7,0,1a2.2,2.2,0,0,1-.1.8,22.115,22.115,0,0,0-.5,2.5c-.1.2-.1.4-.2.6a13.551,13.551,0,0,0-.2,2c0,.1-.1.2-.1.4a2.01,2.01,0,0,1-.4.8c-.1.2-.2.5-.3.7-.1.5-.3,1-.4,1.5-.1.2-.1.5-.2.7a5.7,5.7,0,0,0-.1,1.3c0,.1,0,.1-.1.2a2.353,2.353,0,0,0-.2.8,5.066,5.066,0,0,1-.7,1.5,3.494,3.494,0,0,0-.5,1.3v.2a2.934,2.934,0,0,1-.4,1.6,1.232,1.232,0,0,0-.2,1,1.645,1.645,0,0,1-.2,1c0,.1-.1.3-.1.4a.9.9,0,0,1-.1.5,4.4,4.4,0,0,0-.2,1c0,.3-.2.7-.2,1.1a2.1,2.1,0,0,1-.4,1.1c-.2.4-.2.8-.4,1.2-.1.1-.1.2-.2.3a1.33,1.33,0,0,0-.3.8,2.92,2.92,0,0,0-.2.9v.1a2.768,2.768,0,0,1-.3,1.3c-.1.3-.2.7-.3,1-.1.4-.2.9-.3,1.3a5.066,5.066,0,0,0-.2,1.3c0,.2-.1.3-.1.5a7.491,7.491,0,0,0-.4,1.6,1.854,1.854,0,0,0-.2.7,3.092,3.092,0,0,1-.2.8c-.1.2-.1.3-.2.5a6.468,6.468,0,0,0-.4,1.3c-.1.3-.1.6-.2.8a4.638,4.638,0,0,0-.4,2.1,1.729,1.729,0,0,0,.1,1,2,2,0,0,0,.8,1c.2.2.4.3.6.2a5.7,5.7,0,0,1,1.3.1.367.367,0,0,0,.3-.1c.1,0,.3-.1.4-.1a9.852,9.852,0,0,1,1.7-.2,1.854,1.854,0,0,0,.7-.2c.2-.1.3-.2.2-.4V183a1.422,1.422,0,0,0-.2-.6,5.5,5.5,0,0,1-.2-2.2c0-.2.1-.5.1-.7a2.768,2.768,0,0,1,.1-.9c.2-.5.3-1.1.5-1.7.1-.5.3-1.1.4-1.6a8.332,8.332,0,0,1,.4-1.5c.1-.3.3-.7.4-1,.2-1,.6-2,.8-3,.1-.2.1-.5.2-.7a8.3,8.3,0,0,0,.6-2.1.367.367,0,0,1,.1-.3,5.066,5.066,0,0,0,.2-1.3c.1-.3.1-.7.2-1a5.732,5.732,0,0,0,.4-1.4.367.367,0,0,1,.1-.3,4.252,4.252,0,0,0,.2-1.1,2.354,2.354,0,0,1,.2-.8,11.627,11.627,0,0,0,.4-1.8,3.553,3.553,0,0,1,.2-1,17.418,17.418,0,0,0,.5-2.2,2.485,2.485,0,0,0,.1-.8,2.354,2.354,0,0,1,.2-.8c.1-.1.1-.2.1-.4l.3-1.5c.2-.6.2-1.3.4-1.9a17.418,17.418,0,0,1,.5-2.2V148a4.671,4.671,0,0,1,.3-1.7c.2-.5.2-1.1.4-1.8.1-.1,0-.2,0-.3a6.929,6.929,0,0,1,.3-2,4.954,4.954,0,0,0,.2-1.7v-.4a5.339,5.339,0,0,0,.2-2.2,1.422,1.422,0,0,1,.2-.6c.1-.2.2-.3.5-.2.2,0,.3.2.4.3a7.719,7.719,0,0,1,.2,1.5,1.7,1.7,0,0,0-.1.7v.7c-.1.5-.1,1-.2,1.4a12.1,12.1,0,0,0-.1,1.9.6.6,0,0,1-.1.4,2.966,2.966,0,0,0-.2,1.6v.2a3.083,3.083,0,0,0-.1,1,.756.756,0,0,1-.1.4,4.1,4.1,0,0,0-.1,1.1v.4c-.1.6-.3,1.2-.4,1.8a5.066,5.066,0,0,0-.2,1.3,5.7,5.7,0,0,1-.1,1.3v.2a1.062,1.062,0,0,1-.1.8,1.645,1.645,0,0,0-.2,1,10.588,10.588,0,0,1-.5,3.1c0,.1-.1.2-.1.4,0,.4-.1.8-.1,1.1l-.2.9a2.843,2.843,0,0,1-.4,1.2,1.445,1.445,0,0,0-.2.7,8.6,8.6,0,0,0-.1,1.6c0,.1,0,.1-.1.1a1.087,1.087,0,0,0-.1.5.9.9,0,0,1-.1.5,7.719,7.719,0,0,0-.2,1.5c0,.1-.1.3-.1.4a5.852,5.852,0,0,0-.2,1.3,4.193,4.193,0,0,1-.4,1.6c-.1.2-.1.4-.2.5,0,.2-.1.3-.1.5a2.2,2.2,0,0,0-.1,1.4.365.365,0,0,1-.2.5,5.669,5.669,0,0,0-.8,1.3v.1a27.436,27.436,0,0,1-.9,3.9.349.349,0,0,0-.1.2,3.812,3.812,0,0,0,.1,1.5c0,.1.1.1,0,.2a2.437,2.437,0,0,0,0,1.2c.1.1,0,.2,0,.4v.7a.76.76,0,0,0,.6.8,1.387,1.387,0,0,0,.9,0,7.494,7.494,0,0,1,1.6-.5,1.136,1.136,0,0,0,.8-.3l.9-.5a7.837,7.837,0,0,0,1.5-1c.3-.2.5-.4.8-.6a6.015,6.015,0,0,0,1.3-.9c.1-.1.3-.2.4-.3a6.1,6.1,0,0,0,1.5-1.3,3.043,3.043,0,0,1,.8-.8,2.651,2.651,0,0,0,.5-.6,6.885,6.885,0,0,1,1.1-1.3,1.012,1.012,0,0,0,.4-.7,8.33,8.33,0,0,0,.4-1.5,4.875,4.875,0,0,1,.4-1.1l.3-.6a.6.6,0,0,0,.1-.4c.1-.4.1-.8.2-1.1s.1-.7.2-1c.2-.6.3-1.3.5-1.9a2.768,2.768,0,0,0,.1-.9,1.978,1.978,0,0,1,.2-1.1c0-.1.1-.2.1-.4a.6.6,0,0,1,.1-.4,1.949,1.949,0,0,0,.1-.8,7.067,7.067,0,0,1,.2-2.5c0-.1.1-.3.1-.4a4.331,4.331,0,0,0-.1-.5,4.331,4.331,0,0,1,.1-.5V159a1.387,1.387,0,0,1,0-.9c.1-.5.1-1.1.2-1.6a2.054,2.054,0,0,0,0-1.1,1.087,1.087,0,0,1-.1-.5C235.1,155.1,235,154.9,235.1,154.6Z" fill="#fff"/>
    <path id="パス_8_1_" d="M180.7,166.5a4.868,4.868,0,0,1-.1-1.2v-.7a2.966,2.966,0,0,0-.2-1.6,7.365,7.365,0,0,1-.4-1.4.446.446,0,0,1,0-.5,2.464,2.464,0,0,0-.2-1.7,1.854,1.854,0,0,1-.2-.7,2.353,2.353,0,0,1-.2-.8,2.622,2.622,0,0,1-.2-1.5,4.868,4.868,0,0,0-.1-1.2,2.958,2.958,0,0,1-.2-1,4.193,4.193,0,0,0-.4-1.6c-.2-.5-.5-1-.7-1.5,0-.1-.1-.2-.1-.4a5.853,5.853,0,0,0-.2-1.3c0-.3-.1-.5-.1-.8a2.2,2.2,0,0,1-.1-.8,3.022,3.022,0,0,0-.5-1.6c-.2-.4-.4-.8-.7-1.3a.6.6,0,0,0,.1-.4,5.845,5.845,0,0,0-.2-1.9c0-.1-.1-.1-.1-.2a4.875,4.875,0,0,1-.3-.7c0-.1,0-.1-.1-.2-.4-.3-.5-.7-1-1a1.47,1.47,0,0,1-.5-.6c-.2-.5-.1-1-.4-1.5-.1-.1,0-.1-.1-.2V138a5.84,5.84,0,0,0-.4-1.8c-.1-.1-.2-.2-.2-.1s-.1.1-.1.2c0,.2-.1.4.1.6a.878.878,0,0,1,.1.7c0,.1,0,.2.1.2a1.232,1.232,0,0,1,.2,1,.756.756,0,0,0,.1.4,1.268,1.268,0,0,1,.1.6,9.853,9.853,0,0,0,.2,1.7,1.7,1.7,0,0,1,.1.7v1c0,.2-.1.5-.1.8a3.3,3.3,0,0,0,0,1.4,4.567,4.567,0,0,1,.2,2c0,1.2.1,2.3.2,3.5v.1a4.1,4.1,0,0,1,.1,1.1v2.3a1.986,1.986,0,0,1-.1,1.1.446.446,0,0,0,0,.5,2.768,2.768,0,0,1,.1.9,2.572,2.572,0,0,1-.1,1.5,1.7,1.7,0,0,0-.1.7,1.884,1.884,0,0,0,.2.8,2.045,2.045,0,0,1,0,1.1,1.7,1.7,0,0,0-.1.7v2.6a.9.9,0,0,1-.1.5,6.7,6.7,0,0,0,0,2,.749.749,0,0,1-.1.5,2.2,2.2,0,0,0,.1,1.4,3.079,3.079,0,0,1,.3,1.3,1.445,1.445,0,0,0,.2.7,7.6,7.6,0,0,1,.4,1.1,4.191,4.191,0,0,0,.4,1.5c0,.1,0,.1.1.1a.641.641,0,0,1-.6.8H174a2.911,2.911,0,0,1-2.3-2.1,4.529,4.529,0,0,1-.3-1.6.756.756,0,0,0-.1-.4,1.1,1.1,0,0,1,0-.8c0-.1.1-.2.1-.4a11.482,11.482,0,0,1,.1-1.9.749.749,0,0,1,.1-.5,1.7,1.7,0,0,0,.1-.7.749.749,0,0,1,.1-.5,3.083,3.083,0,0,0,.1-1,3.749,3.749,0,0,1,.1-1.1v-.7c0-.1-.1-.1,0-.2a2.768,2.768,0,0,0,.1-.9,2.2,2.2,0,0,1,.1-.8,2.768,2.768,0,0,0,.1-.9v-1.9a4.1,4.1,0,0,1,.1-1.1,3.787,3.787,0,0,0,0-1.5,2.045,2.045,0,0,1,0-1.1,2.054,2.054,0,0,0,0-1.1,1.7,1.7,0,0,1,0-1,8.6,8.6,0,0,0,.1-1.6,3.083,3.083,0,0,1-.1-1v-1.5a8.6,8.6,0,0,0-.1-1.6,4.868,4.868,0,0,1-.1-1.2,16.2,16.2,0,0,0-.1-2.2,1.952,1.952,0,0,0-.1-.7,5.537,5.537,0,0,1-.2-1.8,4,4,0,0,0-.2-1.9,5.022,5.022,0,0,1-.2-2.1,1.445,1.445,0,0,0-.2-.7c-.2-.4-.3-.7-.5-1.1-.1-.1,0-.3.1-.4.2-.2.4-.5.6-.7a1.389,1.389,0,0,0-.2-1.1,5.372,5.372,0,0,0-1-1.6.781.781,0,0,0-.4-.4,5.637,5.637,0,0,0-1.2-.4,2.075,2.075,0,0,1-1-.6,15.935,15.935,0,0,0-1.3-1.3c-.1-.1-.2-.3-.4-.4-.5-.1-.9-.3-1.4-.4a3.553,3.553,0,0,1-1-.2,5.582,5.582,0,0,0-.8-.5,3.506,3.506,0,0,0-1.4-.6.446.446,0,0,0-.5,0,2.354,2.354,0,0,1-.8.2h-3a2.016,2.016,0,0,0-1.1.3,4.065,4.065,0,0,1-1.9.8c-.4.1-.8.3-1.2.4a.781.781,0,0,0-.4.4,3.6,3.6,0,0,1-1.4,1.1,2.182,2.182,0,0,0-.5.4.52.52,0,0,0-.2.4v1a12.892,12.892,0,0,1-.1,2.8v1.8a3.4,3.4,0,0,1-.1,1,4.1,4.1,0,0,0-.1,1.1c0,.2-.1.5-.1.7a1.949,1.949,0,0,0-.1.8c.1.1,0,.2,0,.3a1.7,1.7,0,0,0-.1.7v3.4a.446.446,0,0,0,0,.5,2.768,2.768,0,0,1-.1.9,7.568,7.568,0,0,0-.1,1.5.854.854,0,0,1,0,.7.367.367,0,0,0-.1.3c.1.2,0,.5,0,.8a2.2,2.2,0,0,1-.1.8,4.1,4.1,0,0,0-.1,1.1,3.812,3.812,0,0,0,.1,1.5c.1.1,0,.2,0,.4a4.484,4.484,0,0,0-.1,1.1v1.3a5.7,5.7,0,0,1-.1,1.3v1.6a5.462,5.462,0,0,0,.1,1.8v.1a4.484,4.484,0,0,0-.1,1.1,2.768,2.768,0,0,1-.1.9c-.1.4.1.7.1,1a.9.9,0,0,0,.1.5,2.768,2.768,0,0,1,.1.9v1.1c0,.1-.1.3-.1.4a2.854,2.854,0,0,0,0,1.3,2.485,2.485,0,0,1,.1.8V169c0,.2.1.5.1.7s-.1.5-.1.7a4.1,4.1,0,0,1-.1,1.1v.3a1.483,1.483,0,0,1,.1.7v2.4a2.2,2.2,0,0,1-.1.8.846.846,0,0,0,0,.7,1.7,1.7,0,0,1,.1.7v1.2a1.062,1.062,0,0,0,.1.8c0,.7.2,1.3.2,1.9v.8a1.763,1.763,0,0,0,.8,1.5,18.648,18.648,0,0,0,2,1c.1,0,.1,0,.1.1a11.272,11.272,0,0,0,1.8.3h.5c.1,0,.2,0,.2-.1a1.794,1.794,0,0,0,.5-.7,5.066,5.066,0,0,0,.2-1.3,1.7,1.7,0,0,1,.1-.7,2.485,2.485,0,0,0,.1-.8,1.949,1.949,0,0,1,.1-.8,2.485,2.485,0,0,0,.1-.8,2.768,2.768,0,0,1,.1-.9,2.437,2.437,0,0,0,0-1.2c-.1-.1-.1-.2,0-.4a1.483,1.483,0,0,0,.1-.7c0-.5.1-1,.1-1.5.1-.1,0-.3,0-.4a2.2,2.2,0,0,1-.1-.8c0-.3.1-.5.1-.8v-.9a.3.3,0,0,1,0-.4,2.879,2.879,0,0,0,.1-1.3,3.812,3.812,0,0,1,.1-1.5c.1-.1,0-.3,0-.4v-3.8a2.879,2.879,0,0,0,.1-1.3v-5.1a8.6,8.6,0,0,1,.1-1.6v-.2a4.868,4.868,0,0,1-.1-1.2,5.462,5.462,0,0,0-.1-1.8v.7a2.485,2.485,0,0,0,.1-.8c0-1,.1-2.1.1-3.1a8.6,8.6,0,0,0-.1-1.6,5.7,5.7,0,0,1-.1-1.3v-2.6a3.4,3.4,0,0,0-.1-1c-.1-.3.1-.6.1-.9a.756.756,0,0,0-.1-.4,2.485,2.485,0,0,1-.1-.8,1.949,1.949,0,0,0-.1-.8,1.95,1.95,0,0,1,0-1.5V139a5.283,5.283,0,0,1-.1-1.3v-1.1c0-.3-.1-.6-.1-.9a24.367,24.367,0,0,0-.1-2.7v-.8a7.412,7.412,0,0,0-.1-2.1v-.2a2.768,2.768,0,0,0,.1-.9.52.52,0,0,1,.2-.4.452.452,0,0,1,.6,0v.1c0,.1.1.1.1.2a4.1,4.1,0,0,1,.1,1.1v.9c0,.3.1.6.1.9v1.5c0,.1-.1.3,0,.4a2.485,2.485,0,0,1,.1.8,12.1,12.1,0,0,1,.1,1.9c0,.1,0,.1.1.2a4.1,4.1,0,0,1,.1,1.1.6.6,0,0,0,.1.4,1.387,1.387,0,0,1,0,.9,1.7,1.7,0,0,0,0,1c0,.1.1.3.1.4v1.5c0,.2-.1.4,0,.5a4.193,4.193,0,0,1,.1,1.6,1.7,1.7,0,0,0,.1.7,4.484,4.484,0,0,1,.1,1.1,2.768,2.768,0,0,0,.1.9,4.484,4.484,0,0,1,.1,1.1,4.868,4.868,0,0,1-.1,1.2,2.879,2.879,0,0,0,.1,1.3v.1a1.062,1.062,0,0,0,.1.8.367.367,0,0,1,.1.3v2.6c0,.3-.1.5-.1.8s.1.5.1.8v1.8a1.7,1.7,0,0,1-.1.7c0,.1-.1.3-.1.4a2.879,2.879,0,0,1,.1,1.3,1.7,1.7,0,0,0,0,1,.6.6,0,0,1-.1.4,2.485,2.485,0,0,0-.1.8,2.2,2.2,0,0,0,.1.8,1.949,1.949,0,0,1-.1.8v.7a.446.446,0,0,1,0,.5c.1.2-.1.5,0,.8v.8a3.749,3.749,0,0,1-.1,1.1.637.637,0,0,0,0,.6,4.868,4.868,0,0,1,.1,1.2,2.854,2.854,0,0,0,0,1.3.446.446,0,0,1,0,.5,1.1,1.1,0,0,0,0,.8c.1.1.1.2,0,.4a2.768,2.768,0,0,0-.1.9c0,.6-.2,1.2-.2,1.9,0,.1-.1.1-.1.2a1.1,1.1,0,0,0,0,.8,3.787,3.787,0,0,1,0,1.5,1.483,1.483,0,0,0-.1.7,1.7,1.7,0,0,1-.1.7.637.637,0,0,0,0,.6,1.483,1.483,0,0,1,0,1.3,5.159,5.159,0,0,0-.2,1.1,19.42,19.42,0,0,0,.2,2.4c.1.3.2.5.5.5a5.852,5.852,0,0,0,1.3.2c.1,0,.1,0,.2.1a7.367,7.367,0,0,1,1.4.4.3.3,0,0,0,.4,0,3.722,3.722,0,0,1,1.8-.2,1.268,1.268,0,0,0,.6-.1.569.569,0,0,0,.4-.7h0c-.2-.5-.1-1-.5-1.4v-.1a2.92,2.92,0,0,0-.2-.9,3.722,3.722,0,0,1-.2-1.8.367.367,0,0,0-.1-.3,1.483,1.483,0,0,1-.1-.7,5.7,5.7,0,0,0-.1-1.3,9.7,9.7,0,0,1-.1-1.7,1.952,1.952,0,0,0-.1-.7,10.479,10.479,0,0,1-.1-2.5c0-.1.1-.2.1-.3a.846.846,0,0,0,0-.7c-.1-.2.1-.4,0-.5a.446.446,0,0,1,0-.5c0-.1,0-.1-.1-.2a.446.446,0,0,1,0-.5c0-.1.1-.2,0-.3a.446.446,0,0,1,0-.5.367.367,0,0,0,.1-.3c-.1-1.2.1-2.4-.1-3.6v-.1c.2-.5,0-1,.2-1.5a.6.6,0,0,0-.1-.4,1.1,1.1,0,0,1,0-.8c0-.1.1-.3.1-.4v-1.5c-.1-.5.3-1,.1-1.6a.1.1,0,0,1,.1-.1,19.418,19.418,0,0,0,.2-2.4,13.128,13.128,0,0,1,.1-2.8v-4.2a3.4,3.4,0,0,1,.1-1,3.083,3.083,0,0,0,.1-1,4.868,4.868,0,0,1,.1-1.2c.1-.1,0-.3.1-.4,0-.3-.1-.5-.1-.8s.2-.5.1-.8.1-.5.1-.8-.1-.5-.1-.8v-2.1a3.4,3.4,0,0,1,.1-1v-.5a2.483,2.483,0,0,1,0-1.7,1.7,1.7,0,0,0,.1-.7v-1.6a10.868,10.868,0,0,1-.1-1.8,4.1,4.1,0,0,0-.1-1.1,3.672,3.672,0,0,1,.1-1.8.634.634,0,0,1,.5-.6,1.3,1.3,0,0,1,1,.9,15.524,15.524,0,0,1,.4,2.1,1.7,1.7,0,0,0,.1.7,11.235,11.235,0,0,1,.4,3.2v.1a1.949,1.949,0,0,1-.1.8c-.1.1,0,.2,0,.3s.1.2.1.4v2.4c0,.1-.1.3-.1.4a1.1,1.1,0,0,0,0,.8.637.637,0,0,1,0,.6,1.7,1.7,0,0,0,0,1c0,.1.1.2,0,.3a1.7,1.7,0,0,0-.1.7,7.568,7.568,0,0,1-.1,1.5,7.568,7.568,0,0,0-.1,1.5.9.9,0,0,1-.1.5,4.193,4.193,0,0,0-.1,1.6v.4a1.1,1.1,0,0,0,0,.8c.1.1.1.2,0,.2-.2.4-.1.8-.2,1.1a.187.187,0,0,0,0,.3c.1.2,0,.5.1.7a.854.854,0,0,1,0,.7,2.485,2.485,0,0,0-.1.8v2.4a1.7,1.7,0,0,1-.1.7,1.468,1.468,0,0,0-.1,1.3,8.6,8.6,0,0,1,.1,1.6v.2a2.879,2.879,0,0,0-.1,1.3,7.568,7.568,0,0,1-.1,1.5c0,.3-.1.6-.1.9-.1.3,0,.6-.1.9v1.2a2.485,2.485,0,0,1,.1.8c.1.3-.1.5,0,.8a2.153,2.153,0,0,1-.2,1.1,1.85,1.85,0,0,0,0,1.2,1.645,1.645,0,0,1,.1,1,3.4,3.4,0,0,1-.1,1,.446.446,0,0,0,0,.5,4.484,4.484,0,0,1,.1,1.1,12.1,12.1,0,0,1,.1,1.9,1.952,1.952,0,0,1-.1.7,1.7,1.7,0,0,0-.1.7c0,.3.2.6,0,.9v.2a3.553,3.553,0,0,1,.2,1,1.087,1.087,0,0,1,.1.5,4.707,4.707,0,0,0,.4,1.6.43.43,0,0,0,.7.2.781.781,0,0,0,.4-.4,1.765,1.765,0,0,1,.9-.8.44.44,0,0,1,.5.1,3.552,3.552,0,0,1,.4.9,1.445,1.445,0,0,0,.7,1c.7-.2.7-.2,1-.5a2.851,2.851,0,0,1,1.4-.8,2.075,2.075,0,0,0,1-.6,20.022,20.022,0,0,1,1.6-1.4,4.233,4.233,0,0,1,.7-.5,3.043,3.043,0,0,0,.8-.8,19.222,19.222,0,0,1,1.3-1.7.1.1,0,0,1,.1-.1,5.716,5.716,0,0,0,.8-.7,2.384,2.384,0,0,0,.6-1.1,12.092,12.092,0,0,1,.5-1.8,7.74,7.74,0,0,1,.7-1.6c.1-.2.2-.5.3-.7a1.689,1.689,0,0,0,.3-1,3.553,3.553,0,0,1,.2-1,2.2,2.2,0,0,0,.1-.8v-.9A1.232,1.232,0,0,0,180.7,166.5Z" fill="#fff"/>
    <path id="パス_9_1_" d="M148.8,132.3c0-.2-.2-.4-.4-.3a3.545,3.545,0,0,0-1.1.3,1.185,1.185,0,0,1-.8.1,1.19,1.19,0,0,0-1.1.4,1.381,1.381,0,0,1-.4.3l-1,.9a4.44,4.44,0,0,0-.8,1.1,2.186,2.186,0,0,1-.3.5,14.625,14.625,0,0,0-.9,1.3,1.756,1.756,0,0,1-.4.5,2.851,2.851,0,0,0-.8,1.4l.2.2a1.326,1.326,0,0,1,.6,1v.5c0,.2-.1.5-.1.7a1.7,1.7,0,0,1,.1.7v.8a4.875,4.875,0,0,1,0,2.4,1.95,1.95,0,0,0-.1,1.3,5.022,5.022,0,0,1-.2,2.1.187.187,0,0,0,0,.3,6.883,6.883,0,0,0,.2,1.3c.1.1,0,.2,0,.3a4.193,4.193,0,0,0-.1,1.6,2.768,2.768,0,0,1-.1.9.454.454,0,0,0,0,.5.637.637,0,0,1,0,.6,1.962,1.962,0,0,0,.1,1.5.367.367,0,0,1,.1.3v1.1a6.6,6.6,0,0,1-.1,1.4.3.3,0,0,0,0,.4c.1.4-.1.7.1,1.1.1.1,0,.2,0,.3a1.7,1.7,0,0,0,0,1,.454.454,0,0,1,0,.5.854.854,0,0,0,0,.7,1.95,1.95,0,0,0,.1,1.3.3.3,0,0,1,0,.4c0,.1-.1.2,0,.3a5.7,5.7,0,0,1,.1,1.3.9.9,0,0,0,.1.5,7.719,7.719,0,0,1,.2,1.5.6.6,0,0,1-.1.4,2.485,2.485,0,0,0-.1.8,2.485,2.485,0,0,1,.1.8c0,.3.1.5.1.8,0,.5.2,1,.2,1.5,0,.1,0,.1.1.2a3.083,3.083,0,0,1,.1,1v.4a3.194,3.194,0,0,1,.3,1.4,1.854,1.854,0,0,0,.2.7,2.92,2.92,0,0,1,.2.9,1.676,1.676,0,0,0,.3,1.2,11.918,11.918,0,0,1,.8,2c.1,0,.1.1,0,.2h0a1.656,1.656,0,0,0,.5,1.2.52.52,0,0,0,.4.2c.4.2.8.4,1.3.6.2.1.4.1.6.2a.3.3,0,0,0,.4-.2h0a2.485,2.485,0,0,0,.1-.8,1.387,1.387,0,0,1,0-.9c0-.1,0-.1.1-.2-.1-.2.1-.5,0-.7s0-.5,0-.8a28.1,28.1,0,0,1-.1-2.9c.1-.4-.1-.7.1-1.1,0-.1,0-.1-.1-.2a1.376,1.376,0,0,1,.1-1.1,1.1,1.1,0,0,0,0-.8,2.208,2.208,0,0,1,0-1.6c.1-.2-.1-.4,0-.6.1-.1-.1-.2-.1-.2a3.812,3.812,0,0,1,.1-1.5c0-.1.1-.3.1-.4,0-.2-.1-.5-.1-.8s.1-.5.1-.8v-.3a4.331,4.331,0,0,0-.1-.5c0-.2.1-.4.1-.6v-5.5a3.4,3.4,0,0,1,.1-1v-1.1a.749.749,0,0,1,.1-.5,1.7,1.7,0,0,0,0-1,2.437,2.437,0,0,1,0-1.2,1.7,1.7,0,0,0,0-1c0-.1-.1-.3-.1-.4a5.853,5.853,0,0,1,.2-1.3,1.1,1.1,0,0,0,0-.8.446.446,0,0,1,0-.5,2.768,2.768,0,0,0,.1-.9,3.3,3.3,0,0,1,0-1.4c.1-.5.1-1,.2-1.4v-.2a.637.637,0,0,1,0-.6c.1-.2,0-.3.1-.5v-1a6.6,6.6,0,0,0,.1-1.4,1.268,1.268,0,0,1,.1-.6.637.637,0,0,0,0-.6.3.3,0,0,1,0-.4c.1-.4.3-.7.1-1v-.1a3.083,3.083,0,0,0,.1-1,4.1,4.1,0,0,1,.1-1.1,6.6,6.6,0,0,0,.1-1.4.6.6,0,0,1,.1-.4,1.7,1.7,0,0,0,.1-.7V135a12.033,12.033,0,0,0,0-1.9A1.033,1.033,0,0,1,148.8,132.3Z" fill="#fff"/>
    <path id="パス_10_1_" d="M189.1,149.8h-.8a3.749,3.749,0,0,1-1.1-.1,1.1,1.1,0,0,0-.8,0,8.083,8.083,0,0,1-1.6.1,2.663,2.663,0,0,1-1.2-.3,1.147,1.147,0,0,0-1-.1,2.092,2.092,0,0,0-.6.4l-.3.6c.1.6.2,1.1.3,1.7a2.045,2.045,0,0,1,0,1.1.3.3,0,0,0,0,.4,6.356,6.356,0,0,0,.6,1.8,10.906,10.906,0,0,0,.6,1.1.821.821,0,0,1,.1.7c0,.2-.1.5-.1.7a4.868,4.868,0,0,0-.1,1.2,1.978,1.978,0,0,0,.2,1.1c.1.4.2.8.3,1.1v.2a13.4,13.4,0,0,0-.1,2,.367.367,0,0,0,.1.3,4.868,4.868,0,0,1,.1,1.2.952.952,0,0,0,.2.7,1.073,1.073,0,0,1,.1,1.1,4.333,4.333,0,0,0-.4,1.9,2.016,2.016,0,0,0,.3,1.1.664.664,0,0,0,.5.4,3.194,3.194,0,0,0,1.4.3,1.387,1.387,0,0,0,.9,0,1.483,1.483,0,0,1,.7-.1c.3.2.5-.1.8-.1a.458.458,0,0,0,.4-.5h0a1.7,1.7,0,0,0-.1-.7,4.013,4.013,0,0,1-.3-1.5c.1-.7,0-1.5.1-2.2a3.4,3.4,0,0,0-.1-1,.446.446,0,0,1,0-.5.454.454,0,0,0,0-.5,7.72,7.72,0,0,0-.2-1.5v-.2c.1-.6.2-1.1.3-1.7a2.622,2.622,0,0,0,.2-1.5,7.568,7.568,0,0,1,.1-1.5,1.376,1.376,0,0,0-.1-1.1c0-.2-.1-.3-.1-.5v-1a4.013,4.013,0,0,1,.3-1.5,1.854,1.854,0,0,0,.2-.7c.1-.5.2-.9.3-1.4a2.2,2.2,0,0,0,.1-.8C189.5,150,189.3,149.8,189.1,149.8Z" fill="#fff"/>
    <path id="パス_11_1_" d="M142.3,175.3a3.091,3.091,0,0,1-.2-.8,5.853,5.853,0,0,0-.2-1.3,3.091,3.091,0,0,1-.2-.8,5.663,5.663,0,0,0-.3-1.8,1.729,1.729,0,0,1-.1-1,.756.756,0,0,0-.1-.4,5.5,5.5,0,0,1-.2-2.2.367.367,0,0,0-.1-.3,1.7,1.7,0,0,1-.1-.7,5.853,5.853,0,0,0-.2-1.3.349.349,0,0,0-.1-.2c.2-.5-.1-1,.1-1.5a4.484,4.484,0,0,1-.1-1.1,2.437,2.437,0,0,1,0-1.2,2.045,2.045,0,0,0,0-1.1,5.283,5.283,0,0,1-.1-1.3v-2.9a.749.749,0,0,1,.1-.5.854.854,0,0,0,0-.7,1.468,1.468,0,0,1-.1-1.3,2.2,2.2,0,0,0,.1-.8v-1.7c0-.3.1-.6.1-.9s-.1-.6-.1-.9v-2.1c0-.1.1-.3.1-.4a.454.454,0,0,0,0-.5,5.7,5.7,0,0,1-.1-1.3v-.8a2.079,2.079,0,0,1,.1-1.1.349.349,0,0,1,.1-.2c0-.2,0-.3-.1-.4a.348.348,0,0,0-.5-.1c-.1.1-.2.3-.3.4-.2.5-.4,1.1-.6,1.6a1.445,1.445,0,0,0-.2.7,8.954,8.954,0,0,0-.2,2.3,3.178,3.178,0,0,1-.2,1.4,5.637,5.637,0,0,0-.4,1.2c-.1.2-.1.5-.2.7l-.6,1.5a1.445,1.445,0,0,0-.2.7,2.879,2.879,0,0,0,.1,1.3c.1.1,0,.2,0,.3a5.022,5.022,0,0,0-.2,2.1,2.2,2.2,0,0,1-.1.8,2.92,2.92,0,0,0-.2.9c0,.1-.1.3-.1.4a6.369,6.369,0,0,0-.2.7.9.9,0,0,1-.1.5,5.02,5.02,0,0,1-.2,1.2v.1a4.868,4.868,0,0,1,.1,1.2,1.7,1.7,0,0,0,.1.7,6.162,6.162,0,0,1,.1,2.7c0,.1-.1.3,0,.4a3.128,3.128,0,0,0,.5,1,8.7,8.7,0,0,1,.9,1.1,1.746,1.746,0,0,1,.4,1.2,4.145,4.145,0,0,0,.2,1.6.846.846,0,0,1,0,.7,2.2,2.2,0,0,0,.1.8c0,.1-.1.1-.1.2a2.133,2.133,0,0,0,.6,2,1.612,1.612,0,0,1,.4.7,1.794,1.794,0,0,0,.5.7l.9,1.2a2.263,2.263,0,0,0,1.5,1c.2.1.4,0,.4-.2v-.2a3.083,3.083,0,0,1-.1-1A9.414,9.414,0,0,1,142.3,175.3Z" fill="#fff"/>
    <path id="パス_12_1_" d="M135.8,114.2h1a2.792,2.792,0,0,1,2,.8l.2.2a.959.959,0,0,0,.9.2,2.178,2.178,0,0,1,.5-.8l.3-.6a2.092,2.092,0,0,1,.4-.6c.1-.2.3-.3.4-.5a.627.627,0,0,0-.2-.8c-.1-.1-.2-.2-.3-.2a5.467,5.467,0,0,0-3.1-.7c-.1.1-.1.1-.2.1a1.193,1.193,0,0,1-.9.5c-.1,0-.1.1-.2.1l-.6.6a2,2,0,0,1-1,.8c-.3.1-.3.4-.1.5C135.3,114.1,135.5,114.3,135.8,114.2Z" fill="#fff"/>
    <path id="パス_13_1_" d="M93.2,113.4c-.2-.1-.3.1-.5.1-.4,0-.5.2-.6.5,0,.2-.1.3-.2.5a15.258,15.258,0,0,0-1.1,1.6.446.446,0,0,0,0,.5l.1.1a5.359,5.359,0,0,0,1.1.5.878.878,0,0,0,.7-.1A6.885,6.885,0,0,0,94,116c.1-.1.1-.2.2-.2a3.7,3.7,0,0,1,.5-1.1.574.574,0,0,0-.2-.7A1.466,1.466,0,0,0,93.2,113.4Z" fill="#fff"/>
    <path id="パス_14_1_" d="M102.9,111.2a5.241,5.241,0,0,1-1-1.1,1.02,1.02,0,0,0-.8-.5.664.664,0,0,0-.5.4,14,14,0,0,0-1,1.6c-.1.2-.1.5.1.6a1.012,1.012,0,0,0,.7.4c.2,0,.3.1.5.2.1.1.2.1.4.1a1.651,1.651,0,0,0,1.5-.5l.4-.4a.661.661,0,0,0,.1-.6A.519.519,0,0,1,102.9,111.2Z" fill="#fff"/>
    <path id="パス_15_1_" d="M105.6,38.9c.1.1.3.2.4.1a.822.822,0,0,0,.4-.6v-.9c0-.3.1-.7.1-1a4.331,4.331,0,0,1,.1-.5,2.966,2.966,0,0,0,.2-1.6,1.949,1.949,0,0,0-.1-.8c0-.2-.3-.2-.4-.1a.1.1,0,0,0-.1.1h0l-.5.9v.1c0,.5-.1,1-.1,1.4a1.445,1.445,0,0,1-.2.7,1.087,1.087,0,0,0-.1.5,8.6,8.6,0,0,1,.1,1.6C105.5,38.8,105.6,38.8,105.6,38.9Z" fill="#fff"/>
    <path id="パス_16_1_" d="M132.4,111a.764.764,0,0,0,.5.2,1.224,1.224,0,0,0,.5-1.8.758.758,0,0,0-.4-.2l-.5-.2a1.854,1.854,0,0,1-.7.2.55.55,0,0,0-.3.5.367.367,0,0,0,.1.3A3.916,3.916,0,0,0,132.4,111Z" fill="#fff"/>
    <path id="パス_17_1_" d="M55.1,49.2a2.947,2.947,0,0,0,1.3-.5c.1-.1.2-.2.3-.2a7.459,7.459,0,0,0,1.2-.7l.2-.2c.1-.1.1-.2,0-.4s-.2-.2-.3-.2c-.2,0-.3.1-.5.1a5.9,5.9,0,0,0-.8.4,1.174,1.174,0,0,0-.9,1c0,.1-.1.1-.1.2a.367.367,0,0,1-.3.1.215.215,0,0,0-.2.2v.1C55,49.2,55,49.2,55.1,49.2Z" fill="#fff"/>
    <path id="パス_18_1_" d="M116.8,114.4a.68.68,0,0,0,.8.4.349.349,0,0,0,.2-.1.367.367,0,0,0,.1-.3.616.616,0,0,0-.1-.7l-.6-.6a.764.764,0,0,0-.5-.2c-.3.1-.5.1-.8.2,0,0-.1.1,0,.1.2.2.3.4.5.5A2.507,2.507,0,0,1,116.8,114.4Z" fill="#fff"/>
    <path id="パス_19_1_" d="M82.8,28.1a.6.6,0,0,0,.4.1.959.959,0,0,0,.9-.2.188.188,0,0,0,0-.3c-.1-.1-.2-.1-.2-.2a6.726,6.726,0,0,1-1.1-.7.349.349,0,0,0-.2-.1c-.1-.1-.3,0-.4.1a1.483,1.483,0,0,1,.1.7C82.4,27.9,82.5,28.1,82.8,28.1Z" fill="#fff"/>
    <path id="パス_20_1_" d="M71.7,53.3a.52.52,0,0,0,.4-.2c.1-.2.2-.4-.1-.5l-.2-.2c-.1-.1-.2-.1-.4-.1a.908.908,0,0,0-.7.3c-.1.1-.2.3-.1.4l.1.1A4.4,4.4,0,0,1,71.7,53.3Z" fill="#fff"/>
    <path id="パス_21_1_" d="M102.3,36.7c.1,0,.2,0,.2-.1h0c0-.1.1-.2.1-.4a1.949,1.949,0,0,1,.1-.8.367.367,0,0,0,.1-.3.878.878,0,0,0-.1-.7.349.349,0,0,0-.2-.1c-.1,0-.1.1-.2.1a2.745,2.745,0,0,0-.2,1.3V36a.9.9,0,0,0,.1.5c-.1.1,0,.2.1.2Z" fill="#fff"/>
    <path id="パス_22_1_" d="M125,37.5a1.209,1.209,0,0,0-.1-1.4.188.188,0,0,0-.3,0v.1c0,.1-.1.2-.1.4.1.2.1.5.2.8a.349.349,0,0,0,.1.2.1.1,0,0,1,.1.1Z" fill="#fff"/>
    <path id="パス_23_1_" d="M119.6,27.8c.1.1.2.2.3.2.1-.1.2-.1.2-.2s.1-.2.1-.3a.367.367,0,0,0-.1-.3l-.2-.4a.31.31,0,0,0-.2-.1c-.1,0-.1.1-.1.2.1.2-.1.4-.1.5A.6.6,0,0,0,119.6,27.8Z" fill="#fff"/>
    <path id="パス_24_1_" d="M87.8,39.7c.1,0,.2-.2.2-.2-.1-.2-.1-.5-.2-.7a.52.52,0,0,0-.4-.2c-.1,0-.1.1-.2.2a.778.778,0,0,0,.2.8A.6.6,0,0,0,87.8,39.7Z" fill="#fff"/>
    <path id="パス_25_1_" d="M72.9,28.2h.3a2.092,2.092,0,0,0,.6-.4.367.367,0,0,0,.1-.3c0-.1-.2-.1-.2-.1a4.671,4.671,0,0,0-1,.5V28h0a.1.1,0,0,0,.1.1l.1.1Z" fill="#fff"/>
    <path id="パス_26_1_" d="M86.1,32.5c.1,0,.1,0,.1-.1a.668.668,0,0,0,0-1h0c-.1.1-.2.2-.3.2s-.1.1-.1.2l.2.5C86,32.5,86.1,32.5,86.1,32.5Z" fill="#fff"/>
    <path id="パス_27_1_" d="M7.2,74.3c-.1.3-.1.7-.2,1a.367.367,0,0,0,.1.3,5.638,5.638,0,0,0,.4-1.2.1.1,0,0,0-.1-.1C7.2,74.2,7.2,74.2,7.2,74.3Z" fill="#fff"/>
    <path id="パス_28_1_" d="M124.7,38.4a.6.6,0,0,0,.1-.4l-.1-.1c-.1,0-.1,0-.1.1C124.5,38,124.5,38.2,124.7,38.4Z" fill="#fff"/>
    <path id="パス_29_1_" d="M30.7,67a1.205,1.205,0,0,0,.5.5.52.52,0,0,0,.4.2,4.951,4.951,0,0,0,1.3.4c.1,0,.1,0,.2-.1a.52.52,0,0,0,.2-.4,2.485,2.485,0,0,1-.1-.8,3.227,3.227,0,0,0-.8-2.1,2.186,2.186,0,0,1-.3-.5c-.1-.2-.1-.3-.2-.5-.1-.1-.1-.2-.2-.2a1.268,1.268,0,0,0-.6-.1.367.367,0,0,0-.1.3,5.067,5.067,0,0,0-.2,1.3.749.749,0,0,1-.1.5.446.446,0,0,0,0,.5A3.333,3.333,0,0,0,30.7,67Z" fill="#fff"/>
    <path id="パス_30_1_" d="M25.7,68.8c0,.1.1.1.2.1l.1-.1a4.714,4.714,0,0,0,.6-1.5c0-.2.1-.3.2-.5l.5-1.6c0-.1.1-.2.1-.4a7.487,7.487,0,0,0-.2-2.1c0-.1-.1-.3-.1-.4a.349.349,0,0,1-.2-.1c-.4-.1-.5.1-.7.5a5.932,5.932,0,0,0-.5,2.3v1a2.769,2.769,0,0,1-.1.9.446.446,0,0,0,0,.5c.1.4.1.8.2,1.2C25.7,68.7,25.7,68.7,25.7,68.8Z" fill="#fff"/>
    <path id="パス_31_1_" d="M41.1,74.8a5.019,5.019,0,0,1,.2,1.2v.8a1.05,1.05,0,0,0,.5.9c.2-.2.2-.5.3-.7a.972.972,0,0,0,.1-.9.6.6,0,0,1,.1-.4c.1-.2.1-.4.2-.5a2.622,2.622,0,0,0-.2-1.5,1.291,1.291,0,0,0-1.3-.9.215.215,0,0,0-.2.2,4.013,4.013,0,0,1,.3,1.5C41,74.7,41.1,74.7,41.1,74.8Z" fill="#fff"/>
    <path id="パス_32_1_" d="M32.8,60c.1.1.1.3.2.4a1.057,1.057,0,0,0,.6.7,1.077,1.077,0,0,0,.2.8c.1.1.1.1.2.1.1-.1.2-.1.1-.2l-.1-.7a.749.749,0,0,1-.1-.5,4.013,4.013,0,0,0-.3-1.5,8.656,8.656,0,0,1-1-2.4.215.215,0,0,0-.2-.2.247.247,0,0,0-.4.1,1.672,1.672,0,0,0-.1,1.2A8.488,8.488,0,0,0,32.8,60Z" fill="#fff"/>
    <path id="パス_33_1_" d="M23.5,86.2a.52.52,0,0,0-.4-.2.6.6,0,0,0-.4-.1.9.9,0,0,0-.7,1,4.253,4.253,0,0,0,.2,1.1c.2.1.3.3.5.4a2.177,2.177,0,0,0,.8.5.44.44,0,0,0,.5-.1v-.2a2.485,2.485,0,0,0,.1-.8,1.284,1.284,0,0,0-.4-1C23.8,86.5,23.7,86.4,23.5,86.2Z" fill="#fff"/>
    <path id="パス_34_1_" d="M32.2,69.9a.3.3,0,0,0-.4,0c-.1.1-.1.1-.1.2a2.959,2.959,0,0,0-.2,1v1.7c0,.1.1.3.1.4a.44.44,0,0,1,.1.5V74c0,.2.2.3.3.4.2,0,.3-.1.3-.4a1.729,1.729,0,0,1,.1-1c.1-.1,0-.2,0-.4v-.7h0v-1A1.163,1.163,0,0,0,32.2,69.9Z" fill="#fff"/>
    <path id="パス_35_1_" d="M41.9,89.7a1.38,1.38,0,0,0,.3-.4.764.764,0,0,0,.2-.5c.1-.2,0-.3-.2-.4h0c-.1-.1-.3-.1-.5-.2a4.331,4.331,0,0,1-.5-.1,2.186,2.186,0,0,0-.5.3c-.1.1-.2.3-.1.4C40.8,89.4,41,89.9,41.9,89.7Z" fill="#fff"/>
    <path id="パス_36_1_" d="M35.2,77c0,.1.1.1.2.1l.1-.1a.9.9,0,0,1,.1-.5,1.929,1.929,0,0,0,.3-1,2.2,2.2,0,0,0-.2-1.4c-.1-.1-.1-.2-.3-.2a.764.764,0,0,0-.2.5,3.553,3.553,0,0,1-.2,1,.6.6,0,0,0-.1.4c0,.2.1.3.1.5A2.544,2.544,0,0,0,35.2,77Z" fill="#fff"/>
    <path id="パス_37_1_" d="M27.2,76.6c.2,0,.3-.1.4-.3.1-.3.1-.7.2-1a.215.215,0,0,0-.2-.2c-.1,0-.2,0-.2.1A1.756,1.756,0,0,0,27.2,76.6Z" fill="#fff"/>
    <path id="パス_38_1_" d="M35.3,72.5l.1.1a.215.215,0,0,0,.2-.2v-.2c-.1-.2-.1-.4-.2-.5-.1.2-.1.4-.2.6,0,.1,0,.2.1.2Z" fill="#fff"/>
    <path id="パス_39_1_" d="M118.4,64.1c.2.1.3.2.5.3.1.1.2.3.4.4a1.208,1.208,0,0,1,.7.7,1.725,1.725,0,0,0,1.5.9,4.331,4.331,0,0,1,.5.1,5.662,5.662,0,0,1,1.8.3c.3.1.6.2,1,.3a3.083,3.083,0,0,0,1.9,0,1.854,1.854,0,0,1,.7-.2,1.7,1.7,0,0,1,1,0c.2.1.5.1.7.2a.3.3,0,0,0,.4,0c.4-.2.8-.1,1.2-.4.1-.1.2,0,.3-.1a3.037,3.037,0,0,0,2.3-1.3,3.745,3.745,0,0,1,1.3-1.2.31.31,0,0,1,.2-.1,2.827,2.827,0,0,0,1.4-1.8v-.5a3.4,3.4,0,0,1,.1-1v-.2a2.2,2.2,0,0,1-.1-.8.756.756,0,0,0-.1-.4,8.8,8.8,0,0,0-.5-1.5,1.573,1.573,0,0,0-1.1-1,2.589,2.589,0,0,1-1.1-.7l-.2-.2a2.577,2.577,0,0,0-1.3-.8c-.1-.1-.3-.1-.4-.2a10.092,10.092,0,0,0-1.5-.7,2.775,2.775,0,0,0-1.8,0,1.81,1.81,0,0,1-1.6.1c-.1-.1-.2,0-.3-.1-.4-.2-.8,0-1.3-.2h0c-.5.1-.9.1-1.4.2a2.281,2.281,0,0,0-1.2.6,2.851,2.851,0,0,1-1.4.8,2.586,2.586,0,0,0-1.4,1.1,1.205,1.205,0,0,1-.5.5c-.2.2-.5.4-.7.6a.781.781,0,0,0-.4.4,2.994,2.994,0,0,1-.4.8.9.9,0,0,0-.1.5,4.1,4.1,0,0,1-.1,1.1c-.1.2,0,.5-.1.8,0,.3-.1.6-.1.8v.2C117.7,63.3,117.9,63.8,118.4,64.1Z"/>
    <path id="パス_40_1_" d="M232.2,143.7a1.934,1.934,0,0,0-.5-.9.1.1,0,0,1-.1-.1.68.68,0,0,0-.8.4v.1c-.1.3-.1.5-.2.8a4.484,4.484,0,0,0-.1,1.1,4.013,4.013,0,0,1-.3,1.5,1.087,1.087,0,0,0-.1.5,7.487,7.487,0,0,1-.2,2.1c0,.1-.1.2-.1.4a4.333,4.333,0,0,1-.4,1.9c0,.1-.1.2-.1.4a5.02,5.02,0,0,1-.2,1.2,5.638,5.638,0,0,1-.4,1.2,1.421,1.421,0,0,0-.2.6,3.553,3.553,0,0,1-.2,1,1.087,1.087,0,0,0-.1.5c0,.2-.1.4-.1.6-.1.4-.1.7-.2,1.1a17.418,17.418,0,0,1-.5,2.2c-.2.7-.3,1.3-.5,1.9a2.485,2.485,0,0,0-.1.8c0,.1-.1.3-.1.4a18.917,18.917,0,0,0-.5,2.3,5.852,5.852,0,0,0-.2,1.3.6.6,0,0,1-.1.4,14.918,14.918,0,0,0-.2,2.1v.1a1.592,1.592,0,0,0,.3,1.3c.1.1.1.4.2.5a5.167,5.167,0,0,1,.8,1.9.64.64,0,0,0,.7.5.91.91,0,0,0,.8-.4,1.136,1.136,0,0,0,.3-.8c.1-.4.2-.9.3-1.3,0-.1.1-.3,0-.4-.1-.6-.1-1.3-.2-1.9h0a.367.367,0,0,0-.1-.3,2.775,2.775,0,0,1,0-1.8c.1-.1,0-.3.1-.4v-.4a6.6,6.6,0,0,0,.1-1.4v-.4a6.6,6.6,0,0,0,.1-1.4,1.7,1.7,0,0,1,.1-.7,1.949,1.949,0,0,0,.1-.8,5.853,5.853,0,0,1,.2-1.3,5.159,5.159,0,0,0,.2-1.1,4.253,4.253,0,0,1,.2-1.1.9.9,0,0,0,.1-.5c.1-.5.1-1,.2-1.5a2.879,2.879,0,0,0,.1-1.3,1.02,1.02,0,0,1,.2-.9.9.9,0,0,0,.1-.5,4.331,4.331,0,0,1,.1-.5,4.013,4.013,0,0,0,.3-1.5,10.081,10.081,0,0,1,.5-2.5,5.019,5.019,0,0,0,.2-1.2,8.752,8.752,0,0,0,.2-1.6c0-.1,0-.1.1-.2a2.768,2.768,0,0,0,.1-.9A2.233,2.233,0,0,0,232.2,143.7Z"/>
    <path id="パス_41_1_" d="M126.5,60.1c.1.1.2,0,.4,0a.756.756,0,0,0,.4-.1,10.662,10.662,0,0,0,1.9-.7,1.33,1.33,0,0,1,.8-.3,4.485,4.485,0,0,1,1.1-.1c.1,0,.1,0,.2-.1s.2-.2.1-.4a1,1,0,0,0-.5-.4,5.853,5.853,0,0,0-1.3-.2h-2.1a2.438,2.438,0,0,1-1.2,0c-.2-.1-.4-.1-.6-.2a.616.616,0,0,0-.7.1l-.5.5a.524.524,0,0,0,.2.8h0A2.517,2.517,0,0,0,126.5,60.1Z" fill="#fff"/>
    <path id="パス_42_1_" d="M130.5,63.5h0c-.1.1-.1.1-.1.2a.1.1,0,0,0,.1.1c.1.1.2.1.4,0a.6.6,0,0,1,.4-.1,1.129,1.129,0,0,0,1.1-.3,2.186,2.186,0,0,0,.5-.3,1.174,1.174,0,0,0,.9-1c.1-.1,0-.3-.1-.4a.446.446,0,0,0-.5,0,.1.1,0,0,0-.1.1h0a3.166,3.166,0,0,0-1.2.8,1.381,1.381,0,0,1-.4.3c-.1.1-.3.1-.4.2C131.1,63.3,130.8,63.4,130.5,63.5Z" fill="#fff"/>
  </g>
</svg>
